<svg width="314" height="44" viewBox="0 0 314 44" fill="none" xmlns="http://www.w3.org/2000/svg">
<rect x="6.58098" y="4.10393" width="21.5461" height="15.7031" stroke="#03C1CD" stroke-width="1.09556"/>
<path d="M20.8233 11.4566C21.0668 11.5972 21.0668 11.9486 20.8233 12.0892L15.6194 15.0937C15.3759 15.2342 15.0716 15.0585 15.0716 14.7774V8.76841C15.0716 8.48729 15.3759 8.31159 15.6194 8.45215L20.8233 11.4566Z" fill="#03C1CD"/>
<path d="M1.59524 28.166H3.38573L6.48467 36.4299L9.59738 28.166H11.3879V38H10.1483V29.8188H10.1208L7.04937 38H5.93375L2.86236 29.8188H2.83481V38H1.59524V28.166ZM13.0282 38V30.8793H14.1989V38H13.0282ZM15.59 27.3947H14.0887L12.7665 29.626H13.648L15.59 27.3947ZM16.4532 34.5016C16.4532 34.8322 16.4946 35.1582 16.5772 35.4795C16.669 35.7917 16.8022 36.0718 16.9766 36.3197C17.1603 36.5676 17.3898 36.765 17.6653 36.9119C17.9499 37.0588 18.2805 37.1323 18.6569 37.1323C19.0518 37.1323 19.3869 37.0542 19.6624 36.8982C19.9378 36.7421 20.1628 36.5401 20.3372 36.2921C20.5117 36.035 20.6357 35.7458 20.7091 35.4244C20.7918 35.1031 20.8331 34.7771 20.8331 34.4466C20.8331 34.0976 20.7918 33.7625 20.7091 33.4411C20.6265 33.1106 20.4933 32.8213 20.3097 32.5734C20.1352 32.3255 19.9057 32.1281 19.6211 31.9812C19.3364 31.8251 18.9921 31.747 18.5881 31.747C18.1932 31.747 17.8581 31.8251 17.5826 31.9812C17.3072 32.1373 17.0868 32.3439 16.9215 32.601C16.7563 32.8581 16.6369 33.1519 16.5634 33.4824C16.49 33.813 16.4532 34.1527 16.4532 34.5016ZM21.9625 38H20.7918V37.0359H20.7642C20.5714 37.4307 20.2684 37.7154 19.8552 37.8898C19.442 38.0643 18.9875 38.1515 18.4917 38.1515C17.9407 38.1515 17.4587 38.0505 17.0455 37.8485C16.6415 37.6465 16.3017 37.3756 16.0263 37.0359C15.76 36.6962 15.558 36.3013 15.4203 35.8514C15.2825 35.4015 15.2137 34.924 15.2137 34.419C15.2137 33.914 15.2779 33.4365 15.4065 32.9866C15.5442 32.5367 15.7462 32.1464 16.0125 31.8159C16.288 31.4762 16.6277 31.2099 17.0317 31.0171C17.4449 30.8151 17.9224 30.7141 18.4641 30.7141C18.6478 30.7141 18.8452 30.7324 19.0564 30.7691C19.2675 30.8059 19.4787 30.8701 19.6899 30.962C19.9011 31.0446 20.0985 31.1594 20.2822 31.3063C20.475 31.444 20.6357 31.6185 20.7642 31.8297H20.7918V28.166H21.9625V38ZM24.59 29.5984H23.4193V28.166H24.59V29.5984ZM23.4193 30.8793H24.59V38H23.4193V30.8793ZM32.2985 37.9725C32.0965 38.0918 31.8164 38.1515 31.4583 38.1515C31.1553 38.1515 30.912 38.0689 30.7284 37.9036C30.5539 37.7291 30.4667 37.4491 30.4667 37.0634C30.1453 37.4491 29.7689 37.7291 29.3373 37.9036C28.9149 38.0689 28.4558 38.1515 27.96 38.1515C27.6386 38.1515 27.331 38.1148 27.0372 38.0413C26.7526 37.9679 26.5046 37.8531 26.2935 37.697C26.0823 37.5409 25.9124 37.3389 25.7838 37.091C25.6645 36.8339 25.6048 36.5263 25.6048 36.1682C25.6048 35.7642 25.6737 35.4336 25.8114 35.1765C25.9491 34.9194 26.1282 34.7128 26.3485 34.5567C26.5781 34.3915 26.8352 34.2675 27.1198 34.1849C27.4137 34.1022 27.7121 34.0334 28.0151 33.9783C28.3365 33.914 28.6395 33.8681 28.9241 33.8405C29.2179 33.8038 29.475 33.7579 29.6954 33.7028C29.9158 33.6385 30.0902 33.5513 30.2188 33.4411C30.3473 33.3218 30.4116 33.1519 30.4116 32.9315C30.4116 32.6744 30.3611 32.4678 30.2601 32.3117C30.1683 32.1556 30.0443 32.0363 29.8882 31.9536C29.7413 31.871 29.5714 31.8159 29.3786 31.7883C29.195 31.7608 29.0113 31.747 28.8277 31.747C28.3319 31.747 27.9187 31.8434 27.5881 32.0363C27.2576 32.2199 27.0785 32.5734 27.051 33.0968H25.8803C25.8986 32.6561 25.9904 32.2842 26.1557 31.9812C26.321 31.6782 26.5414 31.4348 26.8168 31.2512C27.0923 31.0584 27.4045 30.9206 27.7534 30.838C28.1115 30.7554 28.4926 30.7141 28.8966 30.7141C29.2179 30.7141 29.5347 30.737 29.8469 30.7829C30.1683 30.8288 30.4575 30.9252 30.7146 31.0722C30.9717 31.2099 31.1783 31.4073 31.3344 31.6644C31.4905 31.9215 31.5685 32.2566 31.5685 32.6698V36.3335C31.5685 36.6089 31.5823 36.8109 31.6099 36.9395C31.6466 37.068 31.7568 37.1323 31.9404 37.1323C32.0414 37.1323 32.1608 37.1093 32.2985 37.0634V37.9725ZM30.3978 34.3226C30.2509 34.4328 30.0581 34.5154 29.8194 34.5705C29.5806 34.6164 29.3281 34.6577 29.0618 34.6945C28.8047 34.722 28.5431 34.7587 28.2768 34.8047C28.0105 34.8414 27.7718 34.9057 27.5606 34.9975C27.3494 35.0893 27.1749 35.2224 27.0372 35.3969C26.9086 35.5622 26.8444 35.7917 26.8444 36.0855C26.8444 36.2784 26.8811 36.4436 26.9546 36.5814C27.0372 36.7099 27.1382 36.8155 27.2576 36.8982C27.3861 36.9808 27.533 37.0405 27.6983 37.0772C27.8636 37.1139 28.038 37.1323 28.2217 37.1323C28.6073 37.1323 28.9379 37.0818 29.2133 36.9808C29.4888 36.8706 29.7138 36.7375 29.8882 36.5814C30.0627 36.4161 30.1912 36.2416 30.2739 36.058C30.3565 35.8652 30.3978 35.6861 30.3978 35.5208V34.3226Z" fill="#03C1CD"/>
<path d="M59.9605 29.166H67.7423V29.9649H64.3128V39H63.3762V29.9649H59.9605V29.166ZM71.6585 34.9507C71.6493 34.6202 71.5896 34.3034 71.4794 34.0004C71.3784 33.6974 71.2315 33.4311 71.0387 33.2015C70.8459 32.9628 70.6117 32.7746 70.3363 32.6368C70.0608 32.4899 69.7486 32.4165 69.3997 32.4165C69.0416 32.4165 68.7248 32.4899 68.4494 32.6368C68.1739 32.7746 67.9397 32.9628 67.7469 33.2015C67.5541 33.4311 67.398 33.702 67.2786 34.0142C67.1685 34.3172 67.095 34.6293 67.0583 34.9507H71.6585ZM67.0583 35.6807C67.0583 35.9929 67.0996 36.3188 67.1822 36.6586C67.274 36.9891 67.4164 37.2875 67.6092 37.5538C67.802 37.8201 68.0453 38.0405 68.3392 38.2149C68.633 38.3894 68.9865 38.4766 69.3997 38.4766C70.0333 38.4766 70.5291 38.3113 70.8872 37.9808C71.2453 37.6502 71.4932 37.2095 71.6309 36.6586H72.4986C72.315 37.4666 71.9753 38.091 71.4794 38.5317C70.9928 38.9725 70.2995 39.1928 69.3997 39.1928C68.8396 39.1928 68.3529 39.0964 67.9397 38.9036C67.5357 38.7016 67.2052 38.4307 66.9481 38.091C66.691 37.7421 66.4982 37.3426 66.3696 36.8927C66.2503 36.4336 66.1906 35.9516 66.1906 35.4466C66.1906 34.9783 66.2503 34.5192 66.3696 34.0692C66.4982 33.6193 66.691 33.2199 66.9481 32.871C67.2052 32.5129 67.5357 32.2282 67.9397 32.0171C68.3529 31.7967 68.8396 31.6865 69.3997 31.6865C69.969 31.6865 70.4556 31.8013 70.8596 32.0308C71.2636 32.2604 71.5896 32.5634 71.8375 32.9399C72.0946 33.3071 72.2783 33.7341 72.3884 34.2207C72.4986 34.6982 72.5445 35.1849 72.5262 35.6807H67.0583ZM75.2196 35.3088L72.6715 31.8931H73.7596L75.7843 34.5926L77.7676 31.8931H78.8556L76.2939 35.295L79.0622 39H77.9604L75.7292 36.0112L73.5392 39H72.4649L75.2196 35.3088ZM80.8727 31.8931H82.3188V32.6231H80.8727V37.4161C80.8727 37.7007 80.9094 37.9257 80.9828 38.091C81.0655 38.2471 81.2629 38.3343 81.5751 38.3527C81.823 38.3527 82.0709 38.3389 82.3188 38.3113V39.0413C82.1903 39.0413 82.0617 39.0459 81.9332 39.0551C81.8046 39.0643 81.6761 39.0689 81.5475 39.0689C80.9691 39.0689 80.5651 38.9587 80.3355 38.7383C80.1059 38.5088 79.9958 38.091 80.0049 37.485V32.6231H78.7654V31.8931H80.0049V29.7583H80.8727V31.8931ZM86.1601 32.4165C85.7469 32.4165 85.3842 32.5037 85.072 32.6782C84.7598 32.8526 84.4982 33.0822 84.287 33.3668C84.085 33.6515 83.9289 33.9774 83.8187 34.3447C83.7177 34.7028 83.6672 35.0701 83.6672 35.4466C83.6672 35.823 83.7177 36.1949 83.8187 36.5622C83.9289 36.9203 84.085 37.2416 84.287 37.5263C84.4982 37.8109 84.7598 38.0405 85.072 38.2149C85.3842 38.3894 85.7469 38.4766 86.1601 38.4766C86.5733 38.4766 86.936 38.3894 87.2482 38.2149C87.5604 38.0405 87.8175 37.8109 88.0195 37.5263C88.2307 37.2416 88.3868 36.9203 88.4878 36.5622C88.5979 36.1949 88.653 35.823 88.653 35.4466C88.653 35.0701 88.5979 34.7028 88.4878 34.3447C88.3868 33.9774 88.2307 33.6515 88.0195 33.3668C87.8175 33.0822 87.5604 32.8526 87.2482 32.6782C86.936 32.5037 86.5733 32.4165 86.1601 32.4165ZM86.1601 31.6865C86.7018 31.6865 87.1793 31.7875 87.5925 31.9895C88.0149 32.1915 88.3684 32.4624 88.653 32.8021C88.9377 33.1419 89.1535 33.5413 89.3004 34.0004C89.4473 34.4503 89.5207 34.9324 89.5207 35.4466C89.5207 35.9607 89.4473 36.4474 89.3004 36.9065C89.1535 37.3564 88.9377 37.7512 88.653 38.091C88.3684 38.4307 88.0149 38.7016 87.5925 38.9036C87.1793 39.0964 86.7018 39.1928 86.1601 39.1928C85.6184 39.1928 85.1363 39.0964 84.7139 38.9036C84.3007 38.7016 83.9518 38.4307 83.6672 38.091C83.3825 37.7512 83.1668 37.3564 83.0198 36.9065C82.8729 36.4474 82.7995 35.9607 82.7995 35.4466C82.7995 34.9324 82.8729 34.4503 83.0198 34.0004C83.1668 33.5413 83.3825 33.1419 83.6672 32.8021C83.9518 32.4624 84.3007 32.1915 84.7139 31.9895C85.1363 31.7875 85.6184 31.6865 86.1601 31.6865Z" fill="#D4D4D4"/>
<path d="M122.297 28.166H130.079V28.9649H126.649V38H125.713V28.9649H122.297V28.166ZM129.154 30.8931H129.953V32.5596H129.981C130.201 31.9812 130.541 31.5358 131 31.2237C131.468 30.9115 132.024 30.7691 132.666 30.7967V31.6644C132.272 31.646 131.913 31.7011 131.592 31.8297C131.271 31.949 130.991 32.1235 130.752 32.353C130.522 32.5826 130.343 32.8581 130.215 33.1794C130.086 33.4916 130.022 33.8359 130.022 34.2124V38H129.154V30.8931ZM133.003 33.0692C133.03 32.6561 133.118 32.298 133.264 31.9949C133.411 31.6919 133.609 31.444 133.857 31.2512C134.114 31.0584 134.412 30.9161 134.752 30.8242C135.092 30.7324 135.468 30.6865 135.881 30.6865C136.194 30.6865 136.506 30.7186 136.818 30.7829C137.13 30.838 137.41 30.9482 137.658 31.1135C137.906 31.2787 138.108 31.5129 138.264 31.8159C138.42 32.1097 138.498 32.4954 138.498 32.9728V36.7467C138.498 37.0956 138.668 37.27 139.008 37.27C139.109 37.27 139.201 37.2517 139.283 37.2149V37.9449C139.182 37.9633 139.091 37.977 139.008 37.9862C138.934 37.9954 138.838 38 138.719 38C138.498 38 138.319 37.9725 138.181 37.9174C138.053 37.8531 137.952 37.7659 137.878 37.6557C137.805 37.5455 137.755 37.4169 137.727 37.27C137.709 37.1139 137.699 36.9441 137.699 36.7604H137.672C137.516 36.99 137.355 37.1966 137.19 37.3802C137.034 37.5547 136.855 37.7016 136.653 37.821C136.46 37.9403 136.235 38.0321 135.978 38.0964C135.73 38.1607 135.431 38.1928 135.083 38.1928C134.752 38.1928 134.44 38.1515 134.146 38.0689C133.861 37.9954 133.609 37.876 133.388 37.7108C133.177 37.5363 133.007 37.3205 132.879 37.0634C132.759 36.7972 132.7 36.485 132.7 36.1269C132.7 35.631 132.81 35.2454 133.03 34.9699C133.251 34.6853 133.54 34.4695 133.898 34.3226C134.265 34.1757 134.674 34.0747 135.124 34.0196C135.583 33.9553 136.047 33.8956 136.515 33.8405C136.699 33.8222 136.859 33.7992 136.997 33.7717C137.135 33.7441 137.25 33.6982 137.341 33.6339C137.433 33.5605 137.502 33.4641 137.548 33.3447C137.603 33.2253 137.631 33.0692 137.631 32.8764C137.631 32.5826 137.58 32.3439 137.479 32.1602C137.387 31.9674 137.254 31.8159 137.08 31.7057C136.914 31.5955 136.717 31.5221 136.487 31.4853C136.267 31.4394 136.028 31.4165 135.771 31.4165C135.22 31.4165 134.77 31.5496 134.421 31.8159C134.073 32.073 133.889 32.4908 133.871 33.0692H133.003ZM137.631 34.116H137.603C137.548 34.217 137.442 34.2905 137.286 34.3364C137.13 34.3823 136.992 34.4144 136.873 34.4328C136.506 34.4971 136.125 34.5567 135.73 34.6118C135.344 34.6577 134.991 34.7312 134.669 34.8322C134.348 34.9332 134.082 35.0801 133.871 35.2729C133.669 35.4566 133.568 35.7229 133.568 36.0718C133.568 36.2921 133.609 36.4896 133.691 36.664C133.783 36.8293 133.903 36.9762 134.05 37.1048C134.196 37.2241 134.366 37.3159 134.559 37.3802C134.752 37.4445 134.949 37.4766 135.151 37.4766C135.482 37.4766 135.799 37.4261 136.102 37.3251C136.405 37.2241 136.666 37.0772 136.887 36.8844C137.116 36.6916 137.295 36.4574 137.424 36.182C137.562 35.9065 137.631 35.5943 137.631 35.2454V34.116ZM139.801 30.8931H140.668V32.1189H140.696C140.861 31.6873 141.155 31.343 141.577 31.0859C142 30.8196 142.463 30.6865 142.968 30.6865C143.464 30.6865 143.877 30.7508 144.208 30.8793C144.548 31.0079 144.819 31.1915 145.021 31.4303C145.223 31.6598 145.365 31.9444 145.448 32.2842C145.53 32.6239 145.571 33.005 145.571 33.4273V38H144.704V33.5651C144.704 33.2621 144.676 32.982 144.621 32.7249C144.566 32.4586 144.47 32.2291 144.332 32.0363C144.194 31.8434 144.006 31.6919 143.767 31.5818C143.538 31.4716 143.248 31.4165 142.9 31.4165C142.551 31.4165 142.238 31.4808 141.963 31.6093C141.697 31.7287 141.467 31.8985 141.274 32.1189C141.091 32.3301 140.944 32.5872 140.834 32.8902C140.733 33.184 140.677 33.5054 140.668 33.8543V38H139.801V30.8931ZM151.055 32.9728C151.045 32.7066 150.99 32.477 150.889 32.2842C150.788 32.0822 150.651 31.9169 150.476 31.7883C150.311 31.6598 150.118 31.568 149.898 31.5129C149.677 31.4486 149.443 31.4165 149.195 31.4165C149.002 31.4165 148.805 31.4394 148.603 31.4853C148.41 31.5221 148.231 31.5909 148.066 31.6919C147.901 31.7838 147.767 31.9077 147.666 32.0638C147.565 32.2199 147.515 32.4127 147.515 32.6423C147.515 32.8351 147.561 33.0004 147.653 33.1381C147.754 33.2667 147.878 33.3768 148.025 33.4687C148.172 33.5605 148.332 33.6385 148.507 33.7028C148.681 33.7579 148.842 33.8038 148.989 33.8405L150.146 34.1022C150.394 34.139 150.637 34.2078 150.876 34.3088C151.124 34.4006 151.339 34.5246 151.523 34.6807C151.716 34.8368 151.872 35.0296 151.991 35.2592C152.111 35.4887 152.17 35.7596 152.17 36.0718C152.17 36.4574 152.083 36.788 151.909 37.0634C151.734 37.3297 151.509 37.5501 151.234 37.7245C150.967 37.8898 150.664 38.0092 150.325 38.0826C149.985 38.1561 149.65 38.1928 149.319 38.1928C148.484 38.1928 147.804 37.9954 147.281 37.6006C146.767 37.2058 146.473 36.5722 146.399 35.6999H147.267C147.304 36.2875 147.515 36.7329 147.901 37.0359C148.295 37.3297 148.782 37.4766 149.361 37.4766C149.572 37.4766 149.788 37.4537 150.008 37.4078C150.237 37.3618 150.449 37.2838 150.641 37.1736C150.834 37.0634 150.99 36.9257 151.11 36.7604C151.238 36.586 151.303 36.3748 151.303 36.1269C151.303 35.9157 151.257 35.7412 151.165 35.6035C151.082 35.4566 150.967 35.3372 150.821 35.2454C150.674 35.1444 150.504 35.0617 150.311 34.9975C150.127 34.9332 149.939 34.8781 149.746 34.8322L148.631 34.5843C148.346 34.5108 148.084 34.4282 147.846 34.3364C147.607 34.2354 147.396 34.116 147.212 33.9783C147.038 33.8314 146.9 33.6569 146.799 33.4549C146.698 33.2437 146.647 32.9866 146.647 32.6836C146.647 32.3255 146.725 32.0179 146.881 31.7608C147.047 31.5037 147.258 31.2971 147.515 31.141C147.772 30.9849 148.057 30.8701 148.369 30.7967C148.69 30.7232 149.007 30.6865 149.319 30.6865C149.677 30.6865 150.008 30.7324 150.311 30.8242C150.623 30.9161 150.894 31.0584 151.124 31.2512C151.362 31.444 151.55 31.6828 151.688 31.9674C151.826 32.252 151.904 32.5872 151.922 32.9728H151.055ZM153.03 28.166H153.898V29.5571H153.03V28.166ZM153.03 30.8931H153.898V38H153.03V30.8931ZM161.082 35.452C160.962 36.3151 160.646 36.9854 160.131 37.4629C159.626 37.9311 158.984 38.1745 158.203 38.1928L157.749 38.7851C157.914 38.7575 158.088 38.7437 158.272 38.7437C158.456 38.7529 158.625 38.7851 158.782 38.8402C158.947 38.9044 159.08 39.0008 159.181 39.1294C159.291 39.2579 159.346 39.4278 159.346 39.639C159.346 39.8502 159.3 40.0292 159.209 40.1761C159.117 40.3231 158.997 40.4424 158.85 40.5342C158.704 40.6352 158.538 40.7087 158.355 40.7546C158.18 40.8005 158.006 40.8235 157.831 40.8235C157.611 40.8235 157.39 40.8005 157.17 40.7546C156.95 40.7087 156.739 40.6352 156.537 40.5342L156.729 40.0935C156.849 40.1394 157.009 40.1807 157.211 40.2175C157.413 40.2634 157.615 40.2863 157.817 40.2863C158.01 40.2863 158.18 40.2404 158.327 40.1486C158.474 40.0568 158.547 39.9053 158.547 39.6941C158.547 39.5288 158.488 39.4003 158.368 39.3084C158.249 39.2166 158.111 39.1707 157.955 39.1707C157.652 39.1707 157.418 39.2074 157.253 39.2809L157.032 39.0743L157.735 38.1653C157.257 38.1102 156.835 37.977 156.468 37.7659C156.1 37.5455 155.793 37.27 155.545 36.9395C155.297 36.6089 155.109 36.2325 154.98 35.8101C154.852 35.3785 154.787 34.924 154.787 34.4466C154.787 33.9324 154.861 33.4503 155.008 33.0004C155.155 32.5413 155.37 32.1419 155.655 31.8021C155.94 31.4624 156.289 31.1915 156.702 30.9895C157.124 30.7875 157.606 30.6865 158.148 30.6865C158.91 30.6865 159.553 30.8885 160.076 31.2925C160.609 31.6965 160.926 32.3071 161.027 33.1243H160.159C160.04 32.5918 159.819 32.174 159.498 31.871C159.176 31.568 158.726 31.4165 158.148 31.4165C157.735 31.4165 157.372 31.5037 157.06 31.6782C156.748 31.8526 156.486 32.0822 156.275 32.3668C156.073 32.6515 155.917 32.9774 155.807 33.3447C155.706 33.7028 155.655 34.0701 155.655 34.4466C155.655 34.823 155.706 35.1949 155.807 35.5622C155.917 35.9203 156.073 36.2416 156.275 36.5263C156.486 36.8109 156.748 37.0405 157.06 37.2149C157.372 37.3894 157.735 37.4766 158.148 37.4766C158.414 37.4766 158.667 37.4261 158.906 37.3251C159.144 37.2241 159.355 37.0864 159.539 36.9119C159.723 36.7283 159.874 36.5125 159.994 36.2646C160.113 36.0167 160.186 35.7458 160.214 35.452H161.082ZM167.039 28.2487C167.012 28.4048 166.966 28.5609 166.902 28.717C166.846 28.8731 166.768 29.0154 166.667 29.1439C166.576 29.2633 166.461 29.3643 166.323 29.4469C166.185 29.5204 166.025 29.5571 165.841 29.5571C165.657 29.5571 165.478 29.525 165.304 29.4607C165.129 29.3964 164.964 29.323 164.808 29.2403C164.652 29.1577 164.505 29.0842 164.367 29.02C164.23 28.9557 164.101 28.9236 163.982 28.9236C163.77 28.9236 163.596 28.9832 163.458 29.1026C163.321 29.222 163.252 29.3964 163.252 29.626H162.715C162.733 29.4607 162.774 29.3 162.838 29.1439C162.903 28.9878 162.985 28.8501 163.086 28.7307C163.187 28.6022 163.311 28.5012 163.458 28.4277C163.605 28.3451 163.766 28.3038 163.94 28.3038C164.133 28.3038 164.317 28.3359 164.491 28.4002C164.666 28.4645 164.826 28.5333 164.973 28.6068C165.129 28.6802 165.272 28.7491 165.4 28.8134C165.538 28.8776 165.671 28.9098 165.8 28.9098C166.011 28.9098 166.167 28.8455 166.268 28.717C166.378 28.5884 166.461 28.4323 166.516 28.2487H167.039ZM164.877 31.4165C164.464 31.4165 164.101 31.5037 163.789 31.6782C163.477 31.8526 163.215 32.0822 163.004 32.3668C162.802 32.6515 162.646 32.9774 162.535 33.3447C162.434 33.7028 162.384 34.0701 162.384 34.4466C162.384 34.823 162.434 35.1949 162.535 35.5622C162.646 35.9203 162.802 36.2416 163.004 36.5263C163.215 36.8109 163.477 37.0405 163.789 37.2149C164.101 37.3894 164.464 37.4766 164.877 37.4766C165.29 37.4766 165.653 37.3894 165.965 37.2149C166.277 37.0405 166.534 36.8109 166.736 36.5263C166.947 36.2416 167.104 35.9203 167.205 35.5622C167.315 35.1949 167.37 34.823 167.37 34.4466C167.37 34.0701 167.315 33.7028 167.205 33.3447C167.104 32.9774 166.947 32.6515 166.736 32.3668C166.534 32.0822 166.277 31.8526 165.965 31.6782C165.653 31.5037 165.29 31.4165 164.877 31.4165ZM164.877 30.6865C165.419 30.6865 165.896 30.7875 166.309 30.9895C166.732 31.1915 167.085 31.4624 167.37 31.8021C167.654 32.1419 167.87 32.5413 168.017 33.0004C168.164 33.4503 168.238 33.9324 168.238 34.4466C168.238 34.9607 168.164 35.4474 168.017 35.9065C167.87 36.3564 167.654 36.7512 167.37 37.091C167.085 37.4307 166.732 37.7016 166.309 37.9036C165.896 38.0964 165.419 38.1928 164.877 38.1928C164.335 38.1928 163.853 38.0964 163.431 37.9036C163.018 37.7016 162.669 37.4307 162.384 37.091C162.099 36.7512 161.884 36.3564 161.737 35.9065C161.59 35.4474 161.516 34.9607 161.516 34.4466C161.516 33.9324 161.59 33.4503 161.737 33.0004C161.884 32.5413 162.099 32.1419 162.384 31.8021C162.669 31.4624 163.018 31.1915 163.431 30.9895C163.853 30.7875 164.335 30.6865 164.877 30.6865ZM174.224 33.9507C174.215 33.6202 174.155 33.3034 174.045 33.0004C173.944 32.6974 173.797 32.4311 173.604 32.2015C173.412 31.9628 173.177 31.7746 172.902 31.6368C172.627 31.4899 172.314 31.4165 171.965 31.4165C171.607 31.4165 171.291 31.4899 171.015 31.6368C170.74 31.7746 170.505 31.9628 170.313 32.2015C170.12 32.4311 169.964 32.702 169.844 33.0142C169.734 33.3172 169.661 33.6293 169.624 33.9507H174.224ZM169.624 34.6807C169.624 34.9929 169.665 35.3188 169.748 35.6586C169.84 35.9891 169.982 36.2875 170.175 36.5538C170.368 36.8201 170.611 37.0405 170.905 37.2149C171.199 37.3894 171.552 37.4766 171.965 37.4766C172.599 37.4766 173.095 37.3113 173.453 36.9808C173.811 36.6502 174.059 36.2095 174.197 35.6586H175.064C174.881 36.4666 174.541 37.091 174.045 37.5317C173.558 37.9725 172.865 38.1928 171.965 38.1928C171.405 38.1928 170.919 38.0964 170.505 37.9036C170.101 37.7016 169.771 37.4307 169.514 37.091C169.257 36.7421 169.064 36.3426 168.935 35.8927C168.816 35.4336 168.756 34.9516 168.756 34.4466C168.756 33.9783 168.816 33.5192 168.935 33.0692C169.064 32.6193 169.257 32.2199 169.514 31.871C169.771 31.5129 170.101 31.2282 170.505 31.0171C170.919 30.7967 171.405 30.6865 171.965 30.6865C172.535 30.6865 173.021 30.8013 173.425 31.0308C173.829 31.2604 174.155 31.5634 174.403 31.9399C174.66 32.3071 174.844 32.7341 174.954 33.2207C175.064 33.6982 175.11 34.1849 175.092 34.6807H169.624ZM180.099 32.9728C180.09 32.7066 180.035 32.477 179.934 32.2842C179.833 32.0822 179.695 31.9169 179.521 31.7883C179.355 31.6598 179.163 31.568 178.942 31.5129C178.722 31.4486 178.488 31.4165 178.24 31.4165C178.047 31.4165 177.85 31.4394 177.648 31.4853C177.455 31.5221 177.276 31.5909 177.11 31.6919C176.945 31.7838 176.812 31.9077 176.711 32.0638C176.61 32.2199 176.559 32.4127 176.559 32.6423C176.559 32.8351 176.605 33.0004 176.697 33.1381C176.798 33.2667 176.922 33.3768 177.069 33.4687C177.216 33.5605 177.377 33.6385 177.551 33.7028C177.726 33.7579 177.886 33.8038 178.033 33.8405L179.19 34.1022C179.438 34.139 179.681 34.2078 179.92 34.3088C180.168 34.4006 180.384 34.5246 180.567 34.6807C180.76 34.8368 180.916 35.0296 181.036 35.2592C181.155 35.4887 181.215 35.7596 181.215 36.0718C181.215 36.4574 181.128 36.788 180.953 37.0634C180.779 37.3297 180.554 37.5501 180.278 37.7245C180.012 37.8898 179.709 38.0092 179.369 38.0826C179.029 38.1561 178.694 38.1928 178.364 38.1928C177.528 38.1928 176.849 37.9954 176.325 37.6006C175.811 37.2058 175.517 36.5722 175.444 35.6999H176.312C176.348 36.2875 176.559 36.7329 176.945 37.0359C177.34 37.3297 177.827 37.4766 178.405 37.4766C178.616 37.4766 178.832 37.4537 179.052 37.4078C179.282 37.3618 179.493 37.2838 179.686 37.1736C179.879 37.0634 180.035 36.9257 180.154 36.7604C180.283 36.586 180.347 36.3748 180.347 36.1269C180.347 35.9157 180.301 35.7412 180.209 35.6035C180.127 35.4566 180.012 35.3372 179.865 35.2454C179.718 35.1444 179.548 35.0617 179.355 34.9975C179.172 34.9332 178.984 34.8781 178.791 34.8322L177.675 34.5843C177.39 34.5108 177.129 34.4282 176.89 34.3364C176.651 34.2354 176.44 34.116 176.256 33.9783C176.082 33.8314 175.944 33.6569 175.843 33.4549C175.742 33.2437 175.692 32.9866 175.692 32.6836C175.692 32.3255 175.77 32.0179 175.926 31.7608C176.091 31.5037 176.302 31.2971 176.559 31.141C176.817 30.9849 177.101 30.8701 177.413 30.7967C177.735 30.7232 178.052 30.6865 178.364 30.6865C178.722 30.6865 179.052 30.7324 179.355 30.8242C179.668 30.9161 179.938 31.0584 180.168 31.2512C180.407 31.444 180.595 31.6828 180.733 31.9674C180.87 32.252 180.948 32.5872 180.967 32.9728H180.099Z" fill="#D4D4D4"/>
<path d="M206.345 29.166H213.135V29.9649H207.282V33.5183H212.763V34.3172H207.282V38.2012H213.204V39H206.345V29.166ZM216.672 32.6231H215.267V39H214.399V32.6231H213.187V31.8931H214.399V31.2458C214.399 30.9428 214.422 30.6627 214.468 30.4056C214.514 30.1485 214.601 29.9281 214.73 29.7445C214.858 29.5609 215.033 29.4185 215.253 29.3175C215.483 29.2165 215.772 29.166 216.121 29.166C216.249 29.166 216.369 29.1706 216.479 29.1798C216.589 29.189 216.713 29.2028 216.851 29.2211V29.9649C216.731 29.9465 216.621 29.9327 216.52 29.9236C216.419 29.9052 216.318 29.896 216.217 29.896C215.978 29.896 215.795 29.9327 215.666 30.0062C215.538 30.0796 215.441 30.1807 215.377 30.3092C215.322 30.4286 215.29 30.5709 215.281 30.7362C215.271 30.9014 215.267 31.0805 215.267 31.2733V31.8931H216.672V32.6231ZM222.192 34.9507C222.183 34.6202 222.123 34.3034 222.013 34.0004C221.912 33.6974 221.765 33.4311 221.572 33.2015C221.379 32.9628 221.145 32.7746 220.87 32.6368C220.594 32.4899 220.282 32.4165 219.933 32.4165C219.575 32.4165 219.258 32.4899 218.983 32.6368C218.707 32.7746 218.473 32.9628 218.28 33.2015C218.087 33.4311 217.931 33.702 217.812 34.0142C217.702 34.3172 217.628 34.6293 217.592 34.9507H222.192ZM217.592 35.6807C217.592 35.9929 217.633 36.3188 217.716 36.6586C217.807 36.9891 217.95 37.2875 218.143 37.5538C218.335 37.8201 218.579 38.0405 218.872 38.2149C219.166 38.3894 219.52 38.4766 219.933 38.4766C220.567 38.4766 221.062 38.3113 221.421 37.9808C221.779 37.6502 222.027 37.2095 222.164 36.6586H223.032C222.848 37.4666 222.509 38.091 222.013 38.5317C221.526 38.9725 220.833 39.1928 219.933 39.1928C219.373 39.1928 218.886 39.0964 218.473 38.9036C218.069 38.7016 217.739 38.4307 217.481 38.091C217.224 37.7421 217.031 37.3426 216.903 36.8927C216.784 36.4336 216.724 35.9516 216.724 35.4466C216.724 34.9783 216.784 34.5192 216.903 34.0692C217.031 33.6193 217.224 33.2199 217.481 32.871C217.739 32.5129 218.069 32.2282 218.473 32.0171C218.886 31.7967 219.373 31.6865 219.933 31.6865C220.502 31.6865 220.989 31.8013 221.393 32.0308C221.797 32.2604 222.123 32.5634 222.371 32.9399C222.628 33.3071 222.812 33.7341 222.922 34.2207C223.032 34.6982 223.078 35.1849 223.06 35.6807H217.592ZM223.825 29.166H224.692V30.5571H223.825V29.166ZM223.825 31.8931H224.692V39H223.825V31.8931ZM227.317 31.8931H228.763V32.6231H227.317V37.4161C227.317 37.7007 227.354 37.9257 227.427 38.091C227.51 38.2471 227.707 38.3343 228.02 38.3527C228.267 38.3527 228.515 38.3389 228.763 38.3113V39.0413C228.635 39.0413 228.506 39.0459 228.378 39.0551C228.249 39.0643 228.121 39.0689 227.992 39.0689C227.414 39.0689 227.01 38.9587 226.78 38.7383C226.55 38.5088 226.44 38.091 226.449 37.485V32.6231H225.21V31.8931H226.449V29.7583H227.317V31.8931ZM232.605 32.4165C232.191 32.4165 231.829 32.5037 231.516 32.6782C231.204 32.8526 230.943 33.0822 230.731 33.3668C230.529 33.6515 230.373 33.9774 230.263 34.3447C230.162 34.7028 230.112 35.0701 230.112 35.4466C230.112 35.823 230.162 36.1949 230.263 36.5622C230.373 36.9203 230.529 37.2416 230.731 37.5263C230.943 37.8109 231.204 38.0405 231.516 38.2149C231.829 38.3894 232.191 38.4766 232.605 38.4766C233.018 38.4766 233.38 38.3894 233.693 38.2149C234.005 38.0405 234.262 37.8109 234.464 37.5263C234.675 37.2416 234.831 36.9203 234.932 36.5622C235.042 36.1949 235.097 35.823 235.097 35.4466C235.097 35.0701 235.042 34.7028 234.932 34.3447C234.831 33.9774 234.675 33.6515 234.464 33.3668C234.262 33.0822 234.005 32.8526 233.693 32.6782C233.38 32.5037 233.018 32.4165 232.605 32.4165ZM232.605 31.6865C233.146 31.6865 233.624 31.7875 234.037 31.9895C234.459 32.1915 234.813 32.4624 235.097 32.8021C235.382 33.1419 235.598 33.5413 235.745 34.0004C235.892 34.4503 235.965 34.9324 235.965 35.4466C235.965 35.9607 235.892 36.4474 235.745 36.9065C235.598 37.3564 235.382 37.7512 235.097 38.091C234.813 38.4307 234.459 38.7016 234.037 38.9036C233.624 39.0964 233.146 39.1928 232.605 39.1928C232.063 39.1928 231.581 39.0964 231.158 38.9036C230.745 38.7016 230.396 38.4307 230.112 38.091C229.827 37.7512 229.611 37.3564 229.464 36.9065C229.317 36.4474 229.244 35.9607 229.244 35.4466C229.244 34.9324 229.317 34.4503 229.464 34.0004C229.611 33.5413 229.827 33.1419 230.112 32.8021C230.396 32.4624 230.745 32.1915 231.158 31.9895C231.581 31.7875 232.063 31.6865 232.605 31.6865ZM241.098 33.9728C241.089 33.7066 241.034 33.477 240.933 33.2842C240.832 33.0822 240.694 32.9169 240.519 32.7883C240.354 32.6598 240.161 32.568 239.941 32.5129C239.721 32.4486 239.486 32.4165 239.239 32.4165C239.046 32.4165 238.848 32.4394 238.646 32.4853C238.453 32.5221 238.274 32.5909 238.109 32.6919C237.944 32.7838 237.811 32.9077 237.71 33.0638C237.609 33.2199 237.558 33.4127 237.558 33.6423C237.558 33.8351 237.604 34.0004 237.696 34.1381C237.797 34.2667 237.921 34.3768 238.068 34.4687C238.215 34.5605 238.375 34.6385 238.55 34.7028C238.724 34.7579 238.885 34.8038 239.032 34.8405L240.189 35.1022C240.437 35.139 240.68 35.2078 240.919 35.3088C241.167 35.4006 241.383 35.5246 241.566 35.6807C241.759 35.8368 241.915 36.0296 242.034 36.2592C242.154 36.4887 242.214 36.7596 242.214 37.0718C242.214 37.4574 242.126 37.788 241.952 38.0634C241.777 38.3297 241.552 38.5501 241.277 38.7245C241.011 38.8898 240.708 39.0092 240.368 39.0826C240.028 39.1561 239.693 39.1928 239.363 39.1928C238.527 39.1928 237.847 38.9954 237.324 38.6006C236.81 38.2058 236.516 37.5722 236.443 36.6999H237.31C237.347 37.2875 237.558 37.7329 237.944 38.0359C238.339 38.3297 238.825 38.4766 239.404 38.4766C239.615 38.4766 239.831 38.4537 240.051 38.4078C240.281 38.3618 240.492 38.2838 240.685 38.1736C240.878 38.0634 241.034 37.9257 241.153 37.7604C241.282 37.586 241.346 37.3748 241.346 37.1269C241.346 36.9157 241.3 36.7412 241.208 36.6035C241.125 36.4566 241.011 36.3372 240.864 36.2454C240.717 36.1444 240.547 36.0617 240.354 35.9975C240.171 35.9332 239.982 35.8781 239.789 35.8322L238.674 35.5843C238.389 35.5108 238.128 35.4282 237.889 35.3364C237.65 35.2354 237.439 35.116 237.255 34.9783C237.081 34.8314 236.943 34.6569 236.842 34.4549C236.741 34.2437 236.691 33.9866 236.691 33.6836C236.691 33.3255 236.769 33.0179 236.925 32.7608C237.09 32.5037 237.301 32.2971 237.558 32.141C237.815 31.9849 238.1 31.8701 238.412 31.7967C238.734 31.7232 239.05 31.6865 239.363 31.6865C239.721 31.6865 240.051 31.7324 240.354 31.8242C240.666 31.9161 240.937 32.0584 241.167 32.2512C241.406 32.444 241.594 32.6828 241.731 32.9674C241.869 33.252 241.947 33.5872 241.966 33.9728H241.098Z" fill="#D4D4D4"/>
<path d="M275.575 34.1435H279.445L277.545 29.1026L275.575 34.1435ZM277.062 28.166H278.109L281.966 38H280.96L279.762 34.9424H275.286L274.101 38H273.11L277.062 28.166ZM282.295 28.166H283.162V29.5571H282.295V28.166ZM282.295 30.8931H283.162V38.6473C283.162 38.9136 283.139 39.1661 283.093 39.4049C283.057 39.6436 282.979 39.8502 282.859 40.0246C282.749 40.2083 282.593 40.3506 282.391 40.4516C282.198 40.5618 281.95 40.6169 281.647 40.6169C281.546 40.6169 281.45 40.6123 281.358 40.6031C281.257 40.5939 281.156 40.5893 281.055 40.5893V39.8731C281.129 39.8823 281.207 39.8869 281.289 39.8869C281.372 39.8961 281.445 39.8961 281.51 39.8869C281.849 39.8869 282.065 39.7859 282.157 39.5839C282.249 39.3911 282.295 39.1478 282.295 38.8539V30.8931ZM290.167 38H289.368V36.7191H289.341C289.111 37.1966 288.776 37.5639 288.335 37.821C287.904 38.0689 287.421 38.1928 286.889 38.1928C286.439 38.1928 286.053 38.1285 285.732 38C285.42 37.8806 285.163 37.7062 284.961 37.4766C284.768 37.2471 284.626 36.967 284.534 36.6365C284.442 36.3059 284.396 35.9294 284.396 35.5071V30.8931H285.264V35.5208C285.282 36.1636 285.429 36.6502 285.704 36.9808C285.989 37.3113 286.476 37.4766 287.164 37.4766C287.541 37.4766 287.862 37.3986 288.129 37.2425C288.395 37.0772 288.615 36.8614 288.79 36.5951C288.964 36.3289 289.093 36.0259 289.175 35.6861C289.258 35.3372 289.299 34.9837 289.299 34.6256V30.8931H290.167V38ZM295.65 32.9728C295.641 32.7066 295.586 32.477 295.485 32.2842C295.384 32.0822 295.246 31.9169 295.072 31.7883C294.906 31.6598 294.714 31.568 294.493 31.5129C294.273 31.4486 294.039 31.4165 293.791 31.4165C293.598 31.4165 293.401 31.4394 293.198 31.4853C293.006 31.5221 292.827 31.5909 292.661 31.6919C292.496 31.7838 292.363 31.9077 292.262 32.0638C292.161 32.2199 292.11 32.4127 292.11 32.6423C292.11 32.8351 292.156 33.0004 292.248 33.1381C292.349 33.2667 292.473 33.3768 292.62 33.4687C292.767 33.5605 292.928 33.6385 293.102 33.7028C293.277 33.7579 293.437 33.8038 293.584 33.8405L294.741 34.1022C294.989 34.139 295.232 34.2078 295.471 34.3088C295.719 34.4006 295.935 34.5246 296.118 34.6807C296.311 34.8368 296.467 35.0296 296.587 35.2592C296.706 35.4887 296.766 35.7596 296.766 36.0718C296.766 36.4574 296.678 36.788 296.504 37.0634C296.33 37.3297 296.105 37.5501 295.829 37.7245C295.563 37.8898 295.26 38.0092 294.92 38.0826C294.58 38.1561 294.245 38.1928 293.915 38.1928C293.079 38.1928 292.4 37.9954 291.876 37.6006C291.362 37.2058 291.068 36.5722 290.995 35.6999H291.863C291.899 36.2875 292.11 36.7329 292.496 37.0359C292.891 37.3297 293.378 37.4766 293.956 37.4766C294.167 37.4766 294.383 37.4537 294.603 37.4078C294.833 37.3618 295.044 37.2838 295.237 37.1736C295.43 37.0634 295.586 36.9257 295.705 36.7604C295.834 36.586 295.898 36.3748 295.898 36.1269C295.898 35.9157 295.852 35.7412 295.76 35.6035C295.678 35.4566 295.563 35.3372 295.416 35.2454C295.269 35.1444 295.099 35.0617 294.906 34.9975C294.723 34.9332 294.534 34.8781 294.342 34.8322L293.226 34.5843C292.941 34.5108 292.68 34.4282 292.441 34.3364C292.202 34.2354 291.991 34.116 291.807 33.9783C291.633 33.8314 291.495 33.6569 291.394 33.4549C291.293 33.2437 291.243 32.9866 291.243 32.6836C291.243 32.3255 291.321 32.0179 291.477 31.7608C291.642 31.5037 291.853 31.2971 292.11 31.141C292.368 30.9849 292.652 30.8701 292.964 30.7967C293.286 30.7232 293.603 30.6865 293.915 30.6865C294.273 30.6865 294.603 30.7324 294.906 30.8242C295.219 30.9161 295.489 31.0584 295.719 31.2512C295.958 31.444 296.146 31.6828 296.284 31.9674C296.421 32.252 296.499 32.5872 296.518 32.9728H295.65ZM298.989 30.8931H300.435V31.6231H298.989V36.4161C298.989 36.7007 299.026 36.9257 299.1 37.091C299.182 37.2471 299.38 37.3343 299.692 37.3527C299.94 37.3527 300.188 37.3389 300.435 37.3113V38.0413C300.307 38.0413 300.178 38.0459 300.05 38.0551C299.921 38.0643 299.793 38.0689 299.664 38.0689C299.086 38.0689 298.682 37.9587 298.452 37.7383C298.223 37.5088 298.112 37.091 298.122 36.485V31.6231H296.882V30.8931H298.122V28.7583H298.989V30.8931ZM306.384 33.9507C306.375 33.6202 306.315 33.3034 306.205 33.0004C306.104 32.6974 305.957 32.4311 305.764 32.2015C305.571 31.9628 305.337 31.7746 305.062 31.6368C304.786 31.4899 304.474 31.4165 304.125 31.4165C303.767 31.4165 303.45 31.4899 303.175 31.6368C302.899 31.7746 302.665 31.9628 302.473 32.2015C302.28 32.4311 302.124 32.702 302.004 33.0142C301.894 33.3172 301.821 33.6293 301.784 33.9507H306.384ZM301.784 34.6807C301.784 34.9929 301.825 35.3188 301.908 35.6586C302 35.9891 302.142 36.2875 302.335 36.5538C302.528 36.8201 302.771 37.0405 303.065 37.2149C303.359 37.3894 303.712 37.4766 304.125 37.4766C304.759 37.4766 305.255 37.3113 305.613 36.9808C305.971 36.6502 306.219 36.2095 306.357 35.6586H307.224C307.041 36.4666 306.701 37.091 306.205 37.5317C305.718 37.9725 305.025 38.1928 304.125 38.1928C303.565 38.1928 303.079 38.0964 302.665 37.9036C302.261 37.7016 301.931 37.4307 301.674 37.091C301.417 36.7421 301.224 36.3426 301.095 35.8927C300.976 35.4336 300.916 34.9516 300.916 34.4466C300.916 33.9783 300.976 33.5192 301.095 33.0692C301.224 32.6193 301.417 32.2199 301.674 31.871C301.931 31.5129 302.261 31.2282 302.665 31.0171C303.079 30.7967 303.565 30.6865 304.125 30.6865C304.695 30.6865 305.181 30.8013 305.585 31.0308C305.989 31.2604 306.315 31.5634 306.563 31.9399C306.82 32.3071 307.004 32.7341 307.114 33.2207C307.224 33.6982 307.27 34.1849 307.252 34.6807H301.784ZM312.259 32.9728C312.25 32.7066 312.195 32.477 312.094 32.2842C311.993 32.0822 311.855 31.9169 311.681 31.7883C311.515 31.6598 311.322 31.568 311.102 31.5129C310.882 31.4486 310.648 31.4165 310.4 31.4165C310.207 31.4165 310.009 31.4394 309.807 31.4853C309.615 31.5221 309.436 31.5909 309.27 31.6919C309.105 31.7838 308.972 31.9077 308.871 32.0638C308.77 32.2199 308.719 32.4127 308.719 32.6423C308.719 32.8351 308.765 33.0004 308.857 33.1381C308.958 33.2667 309.082 33.3768 309.229 33.4687C309.376 33.5605 309.537 33.6385 309.711 33.7028C309.885 33.7579 310.046 33.8038 310.193 33.8405L311.35 34.1022C311.598 34.139 311.841 34.2078 312.08 34.3088C312.328 34.4006 312.544 34.5246 312.727 34.6807C312.92 34.8368 313.076 35.0296 313.196 35.2592C313.315 35.4887 313.375 35.7596 313.375 36.0718C313.375 36.4574 313.287 36.788 313.113 37.0634C312.938 37.3297 312.714 37.5501 312.438 37.7245C312.172 37.8898 311.869 38.0092 311.529 38.0826C311.189 38.1561 310.854 38.1928 310.524 38.1928C309.688 38.1928 309.009 37.9954 308.485 37.6006C307.971 37.2058 307.677 36.5722 307.604 35.6999H308.471C308.508 36.2875 308.719 36.7329 309.105 37.0359C309.5 37.3297 309.986 37.4766 310.565 37.4766C310.776 37.4766 310.992 37.4537 311.212 37.4078C311.442 37.3618 311.653 37.2838 311.846 37.1736C312.039 37.0634 312.195 36.9257 312.314 36.7604C312.443 36.586 312.507 36.3748 312.507 36.1269C312.507 35.9157 312.461 35.7412 312.369 35.6035C312.287 35.4566 312.172 35.3372 312.025 35.2454C311.878 35.1444 311.708 35.0617 311.515 34.9975C311.332 34.9332 311.143 34.8781 310.951 34.8322L309.835 34.5843C309.55 34.5108 309.289 34.4282 309.05 34.3364C308.811 34.2354 308.6 34.116 308.416 33.9783C308.242 33.8314 308.104 33.6569 308.003 33.4549C307.902 33.2437 307.852 32.9866 307.852 32.6836C307.852 32.3255 307.93 32.0179 308.086 31.7608C308.251 31.5037 308.462 31.2971 308.719 31.141C308.976 30.9849 309.261 30.8701 309.573 30.7967C309.895 30.7232 310.211 30.6865 310.524 30.6865C310.882 30.6865 311.212 30.7324 311.515 30.8242C311.827 30.9161 312.098 31.0584 312.328 31.2512C312.567 31.444 312.755 31.6828 312.893 31.9674C313.03 32.252 313.108 32.5872 313.127 32.9728H312.259Z" fill="#D4D4D4"/>
<path d="M75.93 2.53175C78.6984 2.58057 80.3486 4.42567 80.5919 7.7997L81.4905 7.65405L81.3189 1.73047H67.919L67.75 7.65402L68.6474 7.79966C68.8907 4.42563 70.5173 2.58054 73.3093 2.53172V14.9365C73.3093 17.1939 72.9204 17.5588 70.4932 17.5829V18.5291H78.7465V17.5829C76.3194 17.5589 75.93 17.1939 75.93 14.9365V2.53175Z" fill="#D4D4D4"/>
<path d="M304.533 5.38214H289.641C289.316 5.38214 289.053 5.05515 289.053 4.65176C289.053 4.24838 289.316 3.92139 289.641 3.92139H304.533C304.858 3.92139 305.121 4.24838 305.121 4.65176C305.121 5.05515 304.858 5.38214 304.533 5.38214Z" fill="#D2D2D2"/>
<path d="M283.67 5.38214H278.733C278.382 5.38214 278.098 5.05515 278.098 4.65176C278.098 4.24838 278.382 3.92139 278.733 3.92139H283.67C284.021 3.92139 284.306 4.24838 284.306 4.65176C284.306 5.05515 284.021 5.38214 283.67 5.38214Z" fill="#D2D2D2"/>
<path d="M304.433 16.7029H300.699C300.318 16.7029 300.01 16.3759 300.01 15.9726C300.01 15.5692 300.318 15.2422 300.699 15.2422H304.433C304.814 15.2422 305.122 15.5692 305.122 15.9726C305.122 16.3759 304.814 16.7029 304.433 16.7029Z" fill="#D2D2D2"/>
<path d="M295.389 16.7029H278.701C278.368 16.7029 278.098 16.3759 278.098 15.9726C278.098 15.5692 278.368 15.2422 278.701 15.2422H295.389C295.722 15.2422 295.992 15.5692 295.992 15.9726C295.992 16.3759 295.722 16.7029 295.389 16.7029Z" fill="#D2D2D2"/>
<path d="M286.238 8.26604C284.235 8.26604 282.605 6.63631 282.605 4.63302C282.605 2.62972 284.235 1 286.238 1C288.242 1 289.872 2.6298 289.872 4.63302C289.872 6.63623 288.242 8.26604 286.238 8.26604ZM286.238 2.6307C285.134 2.6307 284.236 3.52901 284.236 4.6331C284.236 5.73719 285.134 6.6355 286.238 6.6355C287.343 6.6355 288.241 5.73719 288.241 4.6331C288.241 3.52893 287.343 2.6307 286.238 2.6307Z" fill="#D2D2D2"/>
<path d="M298.082 19.5868C296.079 19.5868 294.449 17.9571 294.449 15.9538C294.449 13.9505 296.079 12.3208 298.082 12.3208C300.086 12.3208 301.715 13.9506 301.715 15.9538C301.715 17.957 300.085 19.5868 298.082 19.5868ZM298.082 13.9515C296.978 13.9515 296.08 14.8498 296.08 15.9539C296.08 17.058 296.978 17.9563 298.082 17.9563C299.186 17.9563 300.085 17.058 300.085 15.9539C300.085 14.8497 299.186 13.9515 298.082 13.9515Z" fill="#D2D2D2"/>
<path d="M143.344 15.9727V1L161.603 15.9727V1L143.344 15.9727Z" stroke="#D4D4D4" stroke-width="1.46075" stroke-linejoin="round"/>
<path d="M228.786 14.6042L232.082 18.5291M219.052 2.35846L223.919 4.55641L228.472 1.73047V7.69634L232.553 11.4643L227.216 12.2492L224.861 17.9011L222.035 12.8772L216.383 12.2492L220.308 7.69634L219.052 2.35846Z" stroke="#D4D4D4" stroke-width="1.25597" stroke-linejoin="round"/>
</svg>
