<svg width="75" height="467" viewBox="0 0 75 467" fill="none" xmlns="http://www.w3.org/2000/svg">
<mask id="path-1-inside-1_100_1775" fill="white">
<path d="M0 0H75.9795V467H0V0Z"/>
</mask>
<path d="M75.1797 0V467H76.7793V0H75.1797Z" fill="white" fill-opacity="0.12" mask="url(#path-1-inside-1_100_1775)"/>
<g clip-path="url(#clip0_100_1775)">
<g clip-path="url(#clip1_100_1775)">
<g clip-path="url(#clip2_100_1775)">
<rect x="8.58984" y="25.9932" width="57.9933" height="57.9843" rx="11.9968" fill="#767A7F" fill-opacity="0.28"/>
<g opacity="0.3" filter="url(#filter0_f_100_1775)">
<rect width="55.7354" height="57.9843" transform="matrix(1 0 0 -1 37.0039 54.4067)" fill="#007FE0"/>
</g>
<path d="M33.7205 46.167L32.1292 46.462C31.5175 46.5773 30.9708 46.9168 30.5961 47.4138C30.2214 47.9109 30.0456 48.5299 30.1031 49.1498C30.1607 49.7696 30.4473 50.3457 30.9071 50.7653C31.3668 51.185 31.9666 51.4181 32.5891 51.419H35.0884V53.0852H32.5891C31.5501 53.0861 30.5483 52.6987 29.7802 51.999C29.0122 51.2993 28.5333 50.3378 28.4376 49.3032C28.342 48.2686 28.6364 47.2356 29.2631 46.407C29.8898 45.5783 30.8036 45.0137 31.8251 44.8241C31.6955 43.9923 31.7475 43.1424 31.9775 42.3326C32.2075 41.5229 32.61 40.7725 33.1575 40.1331C33.705 39.4937 34.3844 38.9804 35.1491 38.6284C35.9138 38.2765 36.7456 38.0942 37.5873 38.0942C38.4291 38.0942 39.2609 38.2765 40.0256 38.6284C40.7903 38.9804 41.4697 39.4937 42.0172 40.1331C42.5646 40.7725 42.9672 41.5229 43.1972 42.3326C43.4272 43.1424 43.4792 43.9923 43.3495 44.8241C44.3676 45.0176 45.277 45.5834 45.9004 46.4112C46.5237 47.2391 46.8163 48.2694 46.721 49.3013C46.6257 50.3332 46.1493 51.2925 45.3848 51.9921C44.6204 52.6918 43.6227 53.0814 42.5864 53.0852H40.0871V51.419H42.5864C43.2102 51.4203 43.812 51.1883 44.2736 50.7686C44.7351 50.3489 45.0229 49.7717 45.0805 49.1505C45.1382 48.5293 44.9614 47.9091 44.585 47.4116C44.2086 46.9141 43.6597 46.5754 43.0463 46.462L41.455 46.167L41.7033 44.5675C41.7962 43.9733 41.7593 43.366 41.5952 42.7874C41.4311 42.2088 41.1436 41.6725 40.7525 41.2156C40.3615 40.7587 39.8761 40.3918 39.3298 40.1403C38.7835 39.8888 38.1892 39.7585 37.5877 39.7585C36.9863 39.7585 36.392 39.8888 35.8457 40.1403C35.2994 40.3918 34.814 40.7587 34.423 41.2156C34.0319 41.6725 33.7444 42.2088 33.5803 42.7874C33.4162 43.366 33.3793 43.9733 33.4722 44.5675L33.7205 46.167Z" fill="#FAFBFF"/>
<path d="M40.7975 49.0408C40.8756 48.9627 40.9194 48.8568 40.9194 48.7463C40.9194 48.6358 40.8756 48.5299 40.7975 48.4518L38.1757 45.8308C38.0194 45.6747 37.8076 45.5869 37.5867 45.5869C37.3658 45.5869 37.1539 45.6747 36.9977 45.8308L34.3759 48.4518C34.2978 48.5299 34.2539 48.6358 34.2539 48.7463C34.2539 48.8568 34.2978 48.9627 34.3759 49.0408L34.9657 49.6306C35.0438 49.7087 35.1498 49.7526 35.2602 49.7526C35.3707 49.7526 35.4766 49.7087 35.5547 49.6306L36.7536 48.431V52.6682C36.7536 52.7786 36.7974 52.8846 36.8756 52.9627C36.9537 53.0408 37.0596 53.0847 37.1701 53.0847H38.0032C38.1137 53.0847 38.2197 53.0408 38.2978 52.9627C38.3759 52.8846 38.4198 52.7786 38.4198 52.6682V48.431L39.6195 49.6306C39.6975 49.7085 39.8033 49.7522 39.9135 49.7522C40.0238 49.7522 40.1295 49.7085 40.2076 49.6306L40.7975 49.0408Z" fill="#FAFBFF"/>
<g clip-path="url(#clip3_100_1775)">
<path d="M22.4379 62.1526H24.5164L26.8428 68.754H26.8664L29.1338 62.1526H31.1886V70.5845H29.7833V64.0775H29.7597L27.4215 70.5845H26.2051L23.8669 64.0775H23.8432V70.5845H22.4379V62.1526ZM36.5996 66.9944C36.5839 66.7819 36.5366 66.5772 36.4579 66.3804C36.387 66.1835 36.2847 66.0143 36.1509 65.8726C36.0249 65.723 35.8674 65.6049 35.6785 65.5183C35.4974 65.4238 35.2927 65.3766 35.0644 65.3766C34.8282 65.3766 34.6117 65.4199 34.4149 65.5065C34.2259 65.5852 34.0606 65.6994 33.9189 65.8489C33.7851 65.9907 33.6748 66.1599 33.5882 66.3567C33.5095 66.5536 33.4662 66.7661 33.4583 66.9944H36.5996ZM33.4583 67.8801C33.4583 68.1163 33.4898 68.3446 33.5528 68.5651C33.6237 68.7855 33.726 68.9784 33.8598 69.1437C33.9937 69.3091 34.163 69.4429 34.3676 69.5453C34.5723 69.6397 34.8164 69.687 35.0998 69.687C35.4935 69.687 35.8084 69.6043 36.0446 69.439C36.2886 69.2658 36.4697 69.0099 36.5878 68.6714H37.8632C37.7923 69.002 37.6703 69.2973 37.4971 69.5571C37.3239 69.8169 37.1153 70.0373 36.8712 70.2184C36.6272 70.3916 36.3516 70.5215 36.0446 70.6081C35.7454 70.7026 35.4305 70.7498 35.0998 70.7498C34.6196 70.7498 34.1944 70.6711 33.8244 70.5136C33.4544 70.3562 33.1395 70.1357 32.8797 69.8523C32.6277 69.5689 32.4349 69.2303 32.301 68.8367C32.1751 68.4431 32.1121 68.01 32.1121 67.5377C32.1121 67.1047 32.179 66.6953 32.3128 66.3095C32.4545 65.9159 32.6514 65.5734 32.9033 65.2821C33.1631 64.9829 33.4741 64.7467 33.8362 64.5735C34.1984 64.4003 34.6078 64.3137 35.0644 64.3137C35.5446 64.3137 35.9737 64.4161 36.3516 64.6208C36.7374 64.8176 37.0562 65.0813 37.3082 65.412C37.5601 65.7427 37.7412 66.1245 37.8514 66.5575C37.9695 66.9826 38.001 67.4235 37.9459 67.8801H33.4583ZM44.3605 70.5845H43.0851V69.7578H43.0615C42.8804 70.1121 42.6167 70.368 42.2703 70.5254C41.9239 70.675 41.5578 70.7498 41.172 70.7498C40.6918 70.7498 40.2706 70.6671 39.9084 70.5018C39.5542 70.3286 39.2589 70.0964 39.0227 69.8051C38.7865 69.5138 38.6094 69.1713 38.4913 68.7776C38.3732 68.3761 38.3142 67.9471 38.3142 67.4904C38.3142 66.9393 38.389 66.463 38.5386 66.0615C38.6881 65.66 38.885 65.3293 39.129 65.0695C39.381 64.8097 39.6644 64.6208 39.9793 64.5027C40.3021 64.3767 40.6288 64.3137 40.9595 64.3137C41.1484 64.3137 41.3413 64.3334 41.5381 64.3728C41.7349 64.4043 41.9239 64.4594 42.105 64.5381C42.286 64.6168 42.4514 64.7192 42.601 64.8451C42.7584 64.9632 42.8883 65.105 42.9907 65.2703H43.0143V62.1526H44.3605V70.5845ZM39.6604 67.5967C39.6604 67.8565 39.6919 68.1124 39.7549 68.3643C39.8258 68.6163 39.9281 68.8406 40.062 69.0375C40.2037 69.2343 40.3808 69.3917 40.5934 69.5098C40.8059 69.6279 41.0579 69.687 41.3492 69.687C41.6483 69.687 41.9042 69.624 42.1168 69.498C42.3372 69.3721 42.5144 69.2067 42.6482 69.002C42.7899 68.7973 42.8923 68.569 42.9552 68.3171C43.0261 68.0573 43.0615 67.7935 43.0615 67.5259C43.0615 66.8488 42.908 66.3213 42.601 65.9434C42.3018 65.5655 41.8924 65.3766 41.3728 65.3766C41.0579 65.3766 40.7902 65.4435 40.5698 65.5773C40.3572 65.7033 40.18 65.8726 40.0383 66.0851C39.9045 66.2898 39.8061 66.526 39.7431 66.7937C39.688 67.0535 39.6604 67.3212 39.6604 67.5967ZM45.5043 62.1526H46.8506V63.428H45.5043V62.1526ZM45.5043 64.4791H46.8506V70.5845H45.5043V64.4791ZM53.0709 69.2264C53.0709 69.3917 53.0906 69.5098 53.13 69.5807C53.1772 69.6515 53.2638 69.687 53.3898 69.687C53.4291 69.687 53.4764 69.687 53.5315 69.687C53.5866 69.687 53.6496 69.6791 53.7204 69.6633V70.5963C53.6732 70.612 53.6102 70.6278 53.5315 70.6435C53.4606 70.6671 53.3858 70.6868 53.3071 70.7026C53.2284 70.7183 53.1497 70.7301 53.0709 70.738C52.9922 70.7459 52.9253 70.7498 52.8702 70.7498C52.5946 70.7498 52.3663 70.6947 52.1852 70.5845C52.0042 70.4743 51.8861 70.2814 51.831 70.0058C51.5633 70.2656 51.2326 70.4546 50.839 70.5727C50.4532 70.6908 50.0792 70.7498 49.7171 70.7498C49.4415 70.7498 49.1778 70.7104 48.9259 70.6317C48.6739 70.5609 48.4496 70.4546 48.2527 70.3129C48.0638 70.1633 47.9103 69.9783 47.7922 69.7578C47.682 69.5295 47.6268 69.2658 47.6268 68.9666C47.6268 68.5887 47.6938 68.2817 47.8276 68.0455C47.9693 67.8093 48.1504 67.6243 48.3708 67.4904C48.5991 67.3566 48.8511 67.2621 49.1266 67.207C49.41 67.144 49.6935 67.0968 49.9769 67.0653C50.221 67.0181 50.4532 66.9866 50.6736 66.9708C50.8941 66.9472 51.087 66.9118 51.2523 66.8645C51.4255 66.8173 51.5593 66.7464 51.6538 66.652C51.7562 66.5496 51.8073 66.4 51.8073 66.2032C51.8073 66.03 51.764 65.8883 51.6774 65.7781C51.5987 65.6679 51.4964 65.5852 51.3704 65.5301C51.2523 65.4671 51.1185 65.4277 50.9689 65.412C50.8193 65.3884 50.6776 65.3766 50.5437 65.3766C50.1658 65.3766 49.8549 65.4553 49.6108 65.6128C49.3667 65.7702 49.229 66.0143 49.1975 66.3449H47.8512C47.8748 65.9513 47.9693 65.6246 48.1346 65.3648C48.3 65.105 48.5086 64.8963 48.7605 64.7389C49.0203 64.5814 49.3116 64.4712 49.6344 64.4082C49.9572 64.3452 50.2879 64.3137 50.6264 64.3137C50.9256 64.3137 51.2208 64.3452 51.5121 64.4082C51.8034 64.4712 52.0632 64.5735 52.2915 64.7152C52.5277 64.857 52.7167 65.042 52.8584 65.2703C53.0001 65.4907 53.0709 65.7623 53.0709 66.0851V69.2264ZM51.7247 67.5259C51.52 67.6597 51.268 67.7424 50.9689 67.7739C50.6697 67.7975 50.3705 67.8368 50.0714 67.8919C49.9297 67.9156 49.7919 67.951 49.658 67.9982C49.5242 68.0376 49.4061 68.0966 49.3038 68.1754C49.2014 68.2462 49.1188 68.3446 49.0558 68.4706C49.0007 68.5887 48.9731 68.7343 48.9731 68.9076C48.9731 69.0571 49.0164 69.1831 49.103 69.2854C49.1896 69.3878 49.292 69.4705 49.41 69.5334C49.536 69.5886 49.6699 69.6279 49.8116 69.6515C49.9611 69.6752 50.095 69.687 50.2131 69.687C50.3627 69.687 50.5241 69.6673 50.6973 69.6279C50.8705 69.5886 51.0319 69.5216 51.1814 69.4272C51.3389 69.3327 51.4688 69.2146 51.5712 69.0729C51.6735 68.9233 51.7247 68.7422 51.7247 68.5297V67.5259Z" fill="#FAFBFF"/>
</g>
</g>
<g clip-path="url(#clip4_100_1775)">
<path fill-rule="evenodd" clip-rule="evenodd" d="M29.2539 101.971C29.2539 101.529 29.4295 101.106 29.7419 100.793C30.0544 100.481 30.4782 100.305 30.9201 100.305H44.2499C44.6918 100.305 45.1156 100.481 45.4281 100.793C45.7405 101.106 45.9161 101.529 45.9161 101.971V111.969C45.9161 112.411 45.7405 112.834 45.4281 113.147C45.1156 113.459 44.6918 113.635 44.2499 113.635H30.9201C30.4782 113.635 30.0544 113.459 29.7419 113.147C29.4295 112.834 29.2539 112.411 29.2539 111.969V101.971ZM33.4194 101.971H30.9201V104.193H33.4194V101.971ZM33.4194 105.86H30.9201V108.081H33.4194V105.86ZM30.9201 109.747H33.4194V111.969H30.9201V109.747ZM44.2499 101.971H41.7505V104.193H44.2499V101.971ZM44.2499 105.86H41.7505V108.081H44.2499V105.86ZM41.7505 109.747H44.2499V111.969H41.7505V109.747ZM40.0843 101.971H35.0857V111.969H40.0843V101.971Z" fill="#C2CFD6" fill-opacity="0.8"/>
<path d="M28.8846 126.005C28.8216 125.398 28.6012 124.961 28.2233 124.694C27.8533 124.418 27.377 124.28 26.7944 124.28C26.5582 124.28 26.3259 124.304 26.0976 124.351C25.8693 124.398 25.6646 124.477 25.4835 124.587C25.3103 124.698 25.1686 124.847 25.0584 125.036C24.9561 125.217 24.9049 125.446 24.9049 125.721C24.9049 125.981 24.9797 126.194 25.1293 126.359C25.2867 126.516 25.4914 126.646 25.7433 126.749C26.0031 126.851 26.2944 126.937 26.6172 127.008C26.94 127.071 27.2667 127.142 27.5974 127.221C27.9359 127.3 28.2666 127.394 28.5894 127.504C28.9122 127.607 29.1995 127.748 29.4515 127.929C29.7113 128.111 29.916 128.339 30.0655 128.614C30.223 128.89 30.3017 129.236 30.3017 129.654C30.3017 130.102 30.1994 130.488 29.9947 130.811C29.7979 131.126 29.542 131.386 29.2271 131.59C28.9122 131.787 28.5579 131.929 28.1643 132.015C27.7785 132.11 27.3927 132.157 27.0069 132.157C26.5346 132.157 26.0858 132.098 25.6607 131.98C25.2434 131.862 24.8734 131.685 24.5506 131.449C24.2357 131.205 23.9838 130.898 23.7948 130.528C23.6137 130.15 23.5232 129.705 23.5232 129.193H24.586C24.586 129.547 24.6529 129.854 24.7868 130.114C24.9285 130.366 25.1096 130.575 25.33 130.74C25.5583 130.905 25.8221 131.027 26.1212 131.106C26.4204 131.185 26.7275 131.224 27.0424 131.224C27.2943 131.224 27.5462 131.201 27.7982 131.153C28.058 131.106 28.2902 131.027 28.4949 130.917C28.6996 130.799 28.8649 130.642 28.9909 130.445C29.1169 130.248 29.1799 129.996 29.1799 129.689C29.1799 129.398 29.1011 129.162 28.9437 128.981C28.7941 128.799 28.5894 128.654 28.3296 128.544C28.0776 128.425 27.7903 128.331 27.4675 128.26C27.1447 128.189 26.8141 128.118 26.4755 128.048C26.1449 127.969 25.8181 127.882 25.4953 127.788C25.1726 127.685 24.8813 127.556 24.6215 127.398C24.3695 127.233 24.1648 127.024 24.0074 126.772C23.8578 126.512 23.783 126.19 23.783 125.804C23.783 125.379 23.8696 125.013 24.0428 124.706C24.216 124.391 24.4443 124.135 24.7277 123.938C25.019 123.733 25.3458 123.584 25.7079 123.489C26.0779 123.387 26.4558 123.336 26.8416 123.336C27.2746 123.336 27.6761 123.387 28.0462 123.489C28.4162 123.592 28.739 123.753 29.0145 123.973C29.2979 124.194 29.5184 124.473 29.6758 124.812C29.8412 125.142 29.9317 125.54 29.9475 126.005H28.8846ZM32.5332 125.863H33.7496V126.749H32.5332V130.539C32.5332 130.657 32.5411 130.752 32.5569 130.823C32.5805 130.894 32.6198 130.949 32.6749 130.988C32.7301 131.027 32.8049 131.055 32.8993 131.071C33.0017 131.079 33.1316 131.083 33.289 131.083H33.7496V131.968H32.982C32.7222 131.968 32.4978 131.953 32.3089 131.921C32.1278 131.882 31.9782 131.815 31.8601 131.72C31.7499 131.626 31.6672 131.492 31.6121 131.319C31.557 131.146 31.5294 130.917 31.5294 130.634V126.749H30.4902V125.863H31.5294V124.032H32.5332V125.863ZM35.237 128.921C35.237 129.291 35.2843 129.622 35.3787 129.913C35.4811 130.197 35.6189 130.437 35.7921 130.634C35.9653 130.823 36.166 130.968 36.3943 131.071C36.6305 131.173 36.8785 131.224 37.1383 131.224C37.3981 131.224 37.6422 131.173 37.8705 131.071C38.1067 130.968 38.3114 130.823 38.4846 130.634C38.6578 130.437 38.7916 130.197 38.8861 129.913C38.9884 129.622 39.0396 129.291 39.0396 128.921C39.0396 128.551 38.9884 128.225 38.8861 127.941C38.7916 127.65 38.6578 127.406 38.4846 127.209C38.3114 127.012 38.1067 126.863 37.8705 126.76C37.6422 126.658 37.3981 126.607 37.1383 126.607C36.8785 126.607 36.6305 126.658 36.3943 126.76C36.166 126.863 35.9653 127.012 35.7921 127.209C35.6189 127.406 35.4811 127.65 35.3787 127.941C35.2843 128.225 35.237 128.551 35.237 128.921ZM34.1742 128.921C34.1742 128.473 34.2372 128.055 34.3631 127.67C34.4891 127.276 34.678 126.937 34.93 126.654C35.1819 126.363 35.4929 126.134 35.8629 125.969C36.2329 125.804 36.6581 125.721 37.1383 125.721C37.6264 125.721 38.0516 125.804 38.4137 125.969C38.7838 126.134 39.0947 126.363 39.3467 126.654C39.5986 126.937 39.7875 127.276 39.9135 127.67C40.0395 128.055 40.1025 128.473 40.1025 128.921C40.1025 129.37 40.0395 129.787 39.9135 130.173C39.7875 130.559 39.5986 130.898 39.3467 131.189C39.0947 131.472 38.7838 131.697 38.4137 131.862C38.0516 132.019 37.6264 132.098 37.1383 132.098C36.6581 132.098 36.2329 132.019 35.8629 131.862C35.4929 131.697 35.1819 131.472 34.93 131.189C34.678 130.898 34.4891 130.559 34.3631 130.173C34.2372 129.787 34.1742 129.37 34.1742 128.921ZM45.0711 127.823C44.9924 127.437 44.8271 127.138 44.5751 126.926C44.3232 126.713 43.9847 126.607 43.5595 126.607C43.1974 126.607 42.8943 126.674 42.6502 126.808C42.4062 126.941 42.2093 127.119 42.0598 127.339C41.9181 127.559 41.8157 127.815 41.7527 128.107C41.6897 128.39 41.6582 128.685 41.6582 128.992C41.6582 129.276 41.6897 129.551 41.7527 129.819C41.8236 130.087 41.9299 130.327 42.0716 130.539C42.2133 130.744 42.3983 130.909 42.6266 131.035C42.8549 131.161 43.1265 131.224 43.4415 131.224C43.9374 131.224 44.3232 131.094 44.5988 130.835C44.8822 130.575 45.0554 130.209 45.1184 129.736H46.1458C46.0356 130.492 45.7521 131.075 45.2955 131.484C44.8468 131.893 44.2327 132.098 43.4533 132.098C42.9888 132.098 42.5754 132.023 42.2133 131.874C41.859 131.724 41.5598 131.512 41.3158 131.236C41.0796 130.961 40.8985 130.634 40.7725 130.256C40.6545 129.87 40.5954 129.449 40.5954 128.992C40.5954 128.536 40.6545 128.111 40.7725 127.717C40.8906 127.315 41.0678 126.969 41.304 126.678C41.548 126.379 41.8511 126.146 42.2133 125.981C42.5754 125.808 42.9966 125.721 43.4769 125.721C43.8233 125.721 44.1461 125.764 44.4452 125.851C44.7523 125.93 45.02 126.056 45.2483 126.229C45.4845 126.402 45.6773 126.623 45.8269 126.89C45.9765 127.15 46.071 127.461 46.1104 127.823H45.0711ZM46.9681 123.536H47.9719V128.532L50.7589 125.863H52.1052L49.6842 128.083L52.2823 131.968H51.0069L48.9166 128.78L47.9719 129.654V131.968H46.9681V123.536Z" fill="#C2CFD6" fill-opacity="0.8"/>
<path d="M24.5945 148.764H23.5028L21.1994 142.561H22.3391L24.0786 147.732H24.1026L25.7942 142.561H26.8619L24.5945 148.764ZM28.5174 141.446H27.4977V140.198H28.5174V141.446ZM27.4977 142.561H28.5174V148.764H27.4977V142.561ZM30.4811 145.716C30.4811 146.004 30.517 146.288 30.589 146.568C30.669 146.84 30.785 147.084 30.9369 147.3C31.0969 147.516 31.2968 147.688 31.5368 147.816C31.7847 147.944 32.0726 148.008 32.4005 148.008C32.7444 148.008 33.0364 147.94 33.2763 147.804C33.5162 147.668 33.7122 147.492 33.8641 147.276C34.0161 147.052 34.1241 146.8 34.1881 146.52C34.26 146.24 34.296 145.956 34.296 145.669C34.296 145.365 34.26 145.073 34.1881 144.793C34.1161 144.505 34.0001 144.253 33.8401 144.037C33.6882 143.821 33.4882 143.649 33.2403 143.521C32.9924 143.385 32.6925 143.317 32.3406 143.317C31.9966 143.317 31.7047 143.385 31.4648 143.521C31.2249 143.657 31.0329 143.837 30.8889 144.061C30.745 144.285 30.641 144.541 30.577 144.829C30.513 145.117 30.4811 145.413 30.4811 145.716ZM35.2798 148.764H34.26V147.924H34.236C34.0681 148.268 33.8042 148.516 33.4443 148.668C33.0844 148.82 32.6885 148.896 32.2566 148.896C31.7767 148.896 31.3568 148.808 30.9969 148.632C30.645 148.456 30.3491 148.22 30.1092 147.924C29.8772 147.628 29.7013 147.284 29.5813 146.892C29.4613 146.5 29.4013 146.084 29.4013 145.645C29.4013 145.205 29.4573 144.789 29.5693 144.397C29.6893 144.005 29.8652 143.665 30.0972 143.377C30.3371 143.081 30.633 142.849 30.9849 142.681C31.3448 142.505 31.7607 142.417 32.2326 142.417C32.3925 142.417 32.5645 142.433 32.7484 142.465C32.9324 142.497 33.1163 142.553 33.3003 142.633C33.4842 142.705 33.6562 142.805 33.8162 142.933C33.9841 143.053 34.1241 143.205 34.236 143.389H34.26V140.198H35.2798V148.764ZM40.7956 145.069C40.7796 144.829 40.7236 144.601 40.6276 144.385C40.5396 144.169 40.4157 143.985 40.2557 143.833C40.1037 143.673 39.9198 143.549 39.7038 143.461C39.4959 143.365 39.264 143.317 39.008 143.317C38.7441 143.317 38.5042 143.365 38.2882 143.461C38.0803 143.549 37.9003 143.673 37.7484 143.833C37.5964 143.993 37.4764 144.181 37.3885 144.397C37.3005 144.605 37.2485 144.829 37.2325 145.069H40.7956ZM41.7793 146.796C41.6433 147.492 41.3434 148.016 40.8795 148.368C40.4157 148.72 39.8318 148.896 39.128 148.896C38.6321 148.896 38.2003 148.816 37.8324 148.656C37.4724 148.496 37.1685 148.272 36.9206 147.984C36.6727 147.696 36.4847 147.352 36.3567 146.952C36.2368 146.552 36.1688 146.116 36.1528 145.645C36.1528 145.173 36.2248 144.741 36.3687 144.349C36.5127 143.957 36.7127 143.617 36.9686 143.329C37.2325 143.041 37.5404 142.817 37.8923 142.657C38.2522 142.497 38.6441 142.417 39.068 142.417C39.6199 142.417 40.0757 142.533 40.4356 142.765C40.8035 142.989 41.0955 143.277 41.3114 143.629C41.5354 143.981 41.6873 144.365 41.7673 144.781C41.8553 145.197 41.8913 145.593 41.8753 145.968H37.2325C37.2245 146.24 37.2565 146.5 37.3285 146.748C37.4005 146.988 37.5164 147.204 37.6764 147.396C37.8363 147.58 38.0403 147.728 38.2882 147.84C38.5362 147.952 38.8281 148.008 39.164 148.008C39.5959 148.008 39.9478 147.908 40.2197 147.708C40.4996 147.508 40.6836 147.204 40.7716 146.796H41.7793ZM43.3162 145.669C43.3162 146.044 43.3642 146.38 43.4601 146.676C43.5641 146.964 43.7041 147.208 43.88 147.408C44.056 147.6 44.2599 147.748 44.4919 147.852C44.7318 147.956 44.9837 148.008 45.2477 148.008C45.5116 148.008 45.7595 147.956 45.9915 147.852C46.2314 147.748 46.4393 147.6 46.6153 147.408C46.7912 147.208 46.9272 146.964 47.0232 146.676C47.1272 146.38 47.1791 146.044 47.1791 145.669C47.1791 145.293 47.1272 144.961 47.0232 144.673C46.9272 144.377 46.7912 144.129 46.6153 143.929C46.4393 143.729 46.2314 143.577 45.9915 143.473C45.7595 143.369 45.5116 143.317 45.2477 143.317C44.9837 143.317 44.7318 143.369 44.4919 143.473C44.2599 143.577 44.056 143.729 43.88 143.929C43.7041 144.129 43.5641 144.377 43.4601 144.673C43.3642 144.961 43.3162 145.293 43.3162 145.669ZM42.2365 145.669C42.2365 145.213 42.3005 144.789 42.4284 144.397C42.5564 143.997 42.7483 143.653 43.0043 143.365C43.2602 143.069 43.5761 142.837 43.952 142.669C44.3279 142.501 44.7598 142.417 45.2477 142.417C45.7435 142.417 46.1754 142.501 46.5433 142.669C46.9192 142.837 47.2351 143.069 47.4911 143.365C47.747 143.653 47.9389 143.997 48.0669 144.397C48.1949 144.789 48.2588 145.213 48.2588 145.669C48.2588 146.124 48.1949 146.548 48.0669 146.94C47.9389 147.332 47.747 147.676 47.4911 147.972C47.2351 148.26 46.9192 148.488 46.5433 148.656C46.1754 148.816 45.7435 148.896 45.2477 148.896C44.7598 148.896 44.3279 148.816 43.952 148.656C43.5761 148.488 43.2602 148.26 43.0043 147.972C42.7483 147.676 42.5564 147.332 42.4284 146.94C42.3005 146.548 42.2365 146.124 42.2365 145.669ZM49.7251 146.808C49.7331 147.032 49.7851 147.224 49.881 147.384C49.977 147.536 50.101 147.66 50.2529 147.756C50.4129 147.844 50.5888 147.908 50.7808 147.948C50.9807 147.988 51.1847 148.008 51.3926 148.008C51.5526 148.008 51.7205 147.996 51.8965 147.972C52.0724 147.948 52.2324 147.904 52.3764 147.84C52.5283 147.776 52.6523 147.684 52.7483 147.564C52.8442 147.436 52.8922 147.276 52.8922 147.084C52.8922 146.82 52.7922 146.62 52.5923 146.484C52.3924 146.348 52.1404 146.24 51.8365 146.16C51.5406 146.072 51.2167 145.996 50.8648 145.932C50.5129 145.86 50.185 145.764 49.881 145.645C49.5851 145.517 49.3372 145.341 49.1372 145.117C48.9373 144.893 48.8373 144.581 48.8373 144.181C48.8373 143.869 48.9053 143.601 49.0413 143.377C49.1852 143.153 49.3652 142.973 49.5811 142.837C49.8051 142.693 50.053 142.589 50.3249 142.525C50.6048 142.453 50.8808 142.417 51.1527 142.417C51.5046 142.417 51.8285 142.449 52.1244 142.513C52.4203 142.569 52.6803 142.673 52.9042 142.825C53.1362 142.969 53.3201 143.169 53.4561 143.425C53.592 143.673 53.672 143.985 53.696 144.361H52.6763C52.6603 144.161 52.6083 143.997 52.5203 143.869C52.4323 143.733 52.3204 143.625 52.1844 143.545C52.0484 143.465 51.8965 143.409 51.7285 143.377C51.5686 143.337 51.4046 143.317 51.2367 143.317C51.0847 143.317 50.9288 143.329 50.7688 143.353C50.6168 143.377 50.4769 143.421 50.3489 143.485C50.2209 143.541 50.117 143.621 50.037 143.725C49.957 143.821 49.917 143.949 49.917 144.109C49.917 144.285 49.977 144.433 50.097 144.553C50.2249 144.665 50.3849 144.761 50.5768 144.841C50.7688 144.913 50.9847 144.977 51.2247 145.033C51.4646 145.081 51.7045 145.133 51.9445 145.189C52.2004 145.245 52.4483 145.313 52.6883 145.393C52.9362 145.473 53.1522 145.581 53.3361 145.716C53.528 145.844 53.68 146.008 53.792 146.208C53.9119 146.408 53.9719 146.656 53.9719 146.952C53.9719 147.328 53.892 147.64 53.732 147.888C53.58 148.136 53.3761 148.336 53.1202 148.488C52.8722 148.64 52.5883 148.744 52.2684 148.8C51.9565 148.864 51.6446 148.896 51.3326 148.896C50.9887 148.896 50.6608 148.86 50.3489 148.788C50.037 148.716 49.7611 148.6 49.5211 148.44C49.2812 148.272 49.0892 148.056 48.9453 147.792C48.8013 147.52 48.7213 147.192 48.7054 146.808H49.7251Z" fill="#C2CFD6" fill-opacity="0.8"/>
</g>
<g clip-path="url(#clip5_100_1775)">
<path fill-rule="evenodd" clip-rule="evenodd" d="M42.5845 179.318H32.5872C32.3663 179.318 32.1544 179.406 31.9981 179.562C31.8419 179.718 31.7541 179.93 31.7541 180.151V187.604L33.2487 186.188C33.6337 185.823 34.1435 185.618 34.6741 185.616C35.2047 185.614 35.716 185.815 36.1038 186.177L41.2465 190.982H42.5845C42.8055 190.982 43.0174 190.894 43.1736 190.738C43.3299 190.581 43.4176 190.369 43.4176 190.148V180.151C43.4176 179.93 43.3299 179.718 43.1736 179.562C43.0174 179.406 42.8055 179.318 42.5845 179.318ZM31.7541 190.148V189.9L34.3951 187.397C34.472 187.324 34.5741 187.282 34.6803 187.282C34.7866 187.282 34.889 187.322 34.9666 187.394L38.8064 190.982H32.5872C32.3663 190.982 32.1544 190.894 31.9981 190.738C31.8419 190.581 31.7541 190.369 31.7541 190.148ZM32.5872 177.652C31.9244 177.652 31.2886 177.915 30.8199 178.384C30.3512 178.853 30.0879 179.488 30.0879 180.151V190.148C30.0879 190.811 30.3512 191.447 30.8199 191.916C31.2886 192.384 31.9244 192.648 32.5872 192.648H42.5845C43.2474 192.648 43.8831 192.384 44.3518 191.916C44.8205 191.447 45.0838 190.811 45.0838 190.148V180.151C45.0838 179.488 44.8205 178.853 44.3518 178.384C43.8831 177.915 43.2474 177.652 42.5845 177.652H32.5872ZM40.0852 184.317C40.5271 184.317 40.9509 184.141 41.2634 183.829C41.5759 183.516 41.7514 183.092 41.7514 182.651C41.7514 182.209 41.5759 181.785 41.2634 181.472C40.9509 181.16 40.5271 180.984 40.0852 180.984C39.6433 180.984 39.2195 181.16 38.907 181.472C38.5945 181.785 38.419 182.209 38.419 182.651C38.419 183.092 38.5945 183.516 38.907 183.829C39.2195 184.141 39.6433 184.317 40.0852 184.317Z" fill="#C2CFD6" fill-opacity="0.8"/>
<path d="M21.9245 205.754H24.121C24.7587 205.762 25.2232 205.632 25.5145 205.364C25.8137 205.097 25.9633 204.711 25.9633 204.207C25.9633 203.703 25.8137 203.321 25.5145 203.061C25.2232 202.794 24.7587 202.66 24.121 202.66H21.9245V205.754ZM20.8026 201.715H24.4989C25.3492 201.715 25.9908 201.936 26.4239 202.376C26.8647 202.809 27.0852 203.42 27.0852 204.207C27.0852 204.994 26.8647 205.608 26.4239 206.049C25.9908 206.49 25.3492 206.707 24.4989 206.699H21.9245V210.147H20.8026V201.715ZM27.935 201.715H28.9388V204.939H28.9624C29.0411 204.75 29.1513 204.593 29.2931 204.467C29.4348 204.333 29.5922 204.227 29.7654 204.148C29.9465 204.061 30.1315 203.998 30.3205 203.959C30.5173 203.92 30.7062 203.9 30.8873 203.9C31.2888 203.9 31.6234 203.955 31.8911 204.065C32.1588 204.175 32.3753 204.329 32.5406 204.526C32.7059 204.723 32.8201 204.959 32.8831 205.234C32.9539 205.502 32.9894 205.801 32.9894 206.132V210.147H31.9856V206.014C31.9856 205.636 31.8754 205.337 31.6549 205.116C31.4345 204.896 31.1314 204.786 30.7456 204.786C30.4386 204.786 30.1709 204.833 29.9426 204.927C29.7221 205.022 29.5371 205.156 29.3875 205.329C29.2379 205.502 29.1238 205.707 29.0451 205.943C28.9742 206.171 28.9388 206.423 28.9388 206.699V210.147H27.935V201.715ZM34.8693 207.1C34.8693 207.47 34.9165 207.801 35.011 208.092C35.1133 208.376 35.2511 208.616 35.4243 208.813C35.5975 209.001 35.7983 209.147 36.0266 209.249C36.2628 209.352 36.5108 209.403 36.7706 209.403C37.0304 209.403 37.2744 209.352 37.5027 209.249C37.7389 209.147 37.9436 209.001 38.1168 208.813C38.29 208.616 38.4239 208.376 38.5183 208.092C38.6207 207.801 38.6719 207.47 38.6719 207.1C38.6719 206.73 38.6207 206.403 38.5183 206.12C38.4239 205.829 38.29 205.585 38.1168 205.388C37.9436 205.191 37.7389 205.041 37.5027 204.939C37.2744 204.837 37.0304 204.786 36.7706 204.786C36.5108 204.786 36.2628 204.837 36.0266 204.939C35.7983 205.041 35.5975 205.191 35.4243 205.388C35.2511 205.585 35.1133 205.829 35.011 206.12C34.9165 206.403 34.8693 206.73 34.8693 207.1ZM33.8064 207.1C33.8064 206.651 33.8694 206.234 33.9954 205.848C34.1213 205.455 34.3103 205.116 34.5622 204.833C34.8142 204.541 35.1251 204.313 35.4952 204.148C35.8652 203.983 36.2903 203.9 36.7706 203.9C37.2587 203.9 37.6838 203.983 38.046 204.148C38.416 204.313 38.727 204.541 38.9789 204.833C39.2308 205.116 39.4198 205.455 39.5458 205.848C39.6717 206.234 39.7347 206.651 39.7347 207.1C39.7347 207.549 39.6717 207.966 39.5458 208.352C39.4198 208.738 39.2308 209.076 38.9789 209.368C38.727 209.651 38.416 209.875 38.046 210.041C37.6838 210.198 37.2587 210.277 36.7706 210.277C36.2903 210.277 35.8652 210.198 35.4952 210.041C35.1251 209.875 34.8142 209.651 34.5622 209.368C34.3103 209.076 34.1213 208.738 33.9954 208.352C33.8694 207.966 33.8064 207.549 33.8064 207.1ZM41.9518 204.042H43.1682V204.927H41.9518V208.718C41.9518 208.836 41.9597 208.931 41.9754 209.001C41.9991 209.072 42.0384 209.127 42.0935 209.167C42.1486 209.206 42.2234 209.234 42.3179 209.249C42.4203 209.257 42.5502 209.261 42.7076 209.261H43.1682V210.147H42.4006C42.1408 210.147 41.9164 210.131 41.7274 210.1C41.5464 210.06 41.3968 209.993 41.2787 209.899C41.1685 209.805 41.0858 209.671 41.0307 209.497C40.9756 209.324 40.948 209.096 40.948 208.813V204.927H39.9088V204.042H40.948V202.211H41.9518V204.042ZM44.6556 207.1C44.6556 207.47 44.7028 207.801 44.7973 208.092C44.8997 208.376 45.0374 208.616 45.2106 208.813C45.3838 209.001 45.5846 209.147 45.8129 209.249C46.0491 209.352 46.2971 209.403 46.5569 209.403C46.8167 209.403 47.0608 209.352 47.2891 209.249C47.5253 209.147 47.73 209.001 47.9032 208.813C48.0764 208.616 48.2102 208.376 48.3047 208.092C48.407 207.801 48.4582 207.47 48.4582 207.1C48.4582 206.73 48.407 206.403 48.3047 206.12C48.2102 205.829 48.0764 205.585 47.9032 205.388C47.73 205.191 47.5253 205.041 47.2891 204.939C47.0608 204.837 46.8167 204.786 46.5569 204.786C46.2971 204.786 46.0491 204.837 45.8129 204.939C45.5846 205.041 45.3838 205.191 45.2106 205.388C45.0374 205.585 44.8997 205.829 44.7973 206.12C44.7028 206.403 44.6556 206.73 44.6556 207.1ZM43.5928 207.1C43.5928 206.651 43.6557 206.234 43.7817 205.848C43.9077 205.455 44.0966 205.116 44.3486 204.833C44.6005 204.541 44.9115 204.313 45.2815 204.148C45.6515 203.983 46.0767 203.9 46.5569 203.9C47.045 203.9 47.4702 203.983 47.8323 204.148C48.2023 204.313 48.5133 204.541 48.7652 204.833C49.0172 205.116 49.2061 205.455 49.3321 205.848C49.4581 206.234 49.521 206.651 49.521 207.1C49.521 207.549 49.4581 207.966 49.3321 208.352C49.2061 208.738 49.0172 209.076 48.7652 209.368C48.5133 209.651 48.2023 209.875 47.8323 210.041C47.4702 210.198 47.045 210.277 46.5569 210.277C46.0767 210.277 45.6515 210.198 45.2815 210.041C44.9115 209.875 44.6005 209.651 44.3486 209.368C44.0966 209.076 43.9077 208.738 43.7817 208.352C43.6557 207.966 43.5928 207.549 43.5928 207.1ZM50.9587 208.222C50.9666 208.442 51.0178 208.631 51.1123 208.789C51.2067 208.938 51.3288 209.061 51.4783 209.155C51.6358 209.242 51.809 209.305 51.998 209.344C52.1948 209.383 52.3955 209.403 52.6002 209.403C52.7577 209.403 52.923 209.391 53.0962 209.368C53.2694 209.344 53.4269 209.301 53.5686 209.238C53.7182 209.175 53.8402 209.084 53.9347 208.966C54.0292 208.84 54.0764 208.683 54.0764 208.494C54.0764 208.234 53.978 208.037 53.7812 207.903C53.5843 207.769 53.3363 207.663 53.0372 207.584C52.7459 207.498 52.427 207.423 52.0806 207.36C51.7342 207.289 51.4114 207.195 51.1123 207.077C50.821 206.951 50.5769 206.777 50.3801 206.557C50.1833 206.337 50.0848 206.029 50.0848 205.636C50.0848 205.329 50.1518 205.065 50.2856 204.845C50.4273 204.624 50.6045 204.447 50.817 204.313C51.0375 204.171 51.2815 204.069 51.5492 204.006C51.8247 203.935 52.0964 203.9 52.364 203.9C52.7104 203.9 53.0293 203.931 53.3206 203.994C53.6119 204.049 53.8678 204.152 54.0882 204.301C54.3165 204.443 54.4976 204.64 54.6314 204.892C54.7653 205.136 54.844 205.443 54.8676 205.813H53.8638C53.8481 205.616 53.7969 205.455 53.7103 205.329C53.6237 205.195 53.5135 205.089 53.3796 205.01C53.2458 204.931 53.0962 204.876 52.9309 204.845C52.7734 204.805 52.612 204.786 52.4467 204.786C52.2971 204.786 52.1436 204.797 51.9861 204.821C51.8366 204.845 51.6988 204.888 51.5728 204.951C51.4469 205.006 51.3445 205.085 51.2658 205.187C51.187 205.282 51.1477 205.408 51.1477 205.565C51.1477 205.738 51.2067 205.884 51.3248 206.002C51.4508 206.112 51.6082 206.207 51.7972 206.285C51.9861 206.356 52.1987 206.419 52.4349 206.474C52.6711 206.522 52.9073 206.573 53.1435 206.628C53.3954 206.683 53.6394 206.75 53.8756 206.829C54.1197 206.907 54.3323 207.014 54.5133 207.147C54.7023 207.273 54.8519 207.435 54.9621 207.632C55.0802 207.828 55.1392 208.072 55.1392 208.364C55.1392 208.734 55.0605 209.041 54.903 209.285C54.7535 209.529 54.5527 209.726 54.3008 209.875C54.0567 210.025 53.7772 210.127 53.4623 210.182C53.1553 210.245 52.8482 210.277 52.5412 210.277C52.2026 210.277 51.8799 210.241 51.5728 210.171C51.2658 210.1 50.9942 209.986 50.758 209.828C50.5218 209.663 50.3328 209.45 50.1911 209.19C50.0494 208.923 49.9707 208.6 49.9549 208.222H50.9587Z" fill="#C2CFD6" fill-opacity="0.8"/>
</g>
<g clip-path="url(#clip6_100_1775)">
<path fill-rule="evenodd" clip-rule="evenodd" d="M42.9535 239.416C43.2018 239.344 43.4633 239.331 43.7175 239.378C43.9716 239.425 44.2114 239.53 44.4179 239.686C44.6243 239.841 44.7918 240.042 44.9071 240.273C45.0224 240.505 45.0823 240.76 45.0821 241.018V250.26C45.082 251.096 44.8027 251.907 44.2885 252.566C43.7742 253.225 43.0546 253.693 42.2438 253.896C41.4331 254.099 40.5778 254.026 39.8137 253.687C39.0497 253.348 38.4207 252.764 38.0267 252.027C37.6328 251.29 37.4964 250.442 37.6393 249.618C37.7822 248.795 38.1962 248.043 38.8155 247.482C39.4347 246.92 40.2238 246.582 41.0573 246.521C41.8908 246.459 42.721 246.678 43.4159 247.142V241.301L35.9179 243.534V251.925C35.9178 252.761 35.6385 253.573 35.1243 254.232C34.61 254.89 33.8904 255.359 33.0797 255.562C32.2689 255.765 31.4136 255.691 30.6495 255.352C29.8855 255.013 29.2565 254.429 28.8626 253.692C28.4686 252.955 28.3322 252.107 28.4751 251.284C28.618 250.46 29.032 249.708 29.6513 249.147C30.2705 248.586 31.0596 248.248 31.8931 248.186C32.7266 248.125 33.5568 248.343 34.2517 248.808V243.181C34.2516 242.82 34.369 242.468 34.5861 242.179C34.8032 241.89 35.1084 241.68 35.4555 241.58L42.9535 239.416ZM43.4159 250.259C43.4159 250.811 43.1964 251.341 42.8058 251.732C42.4153 252.122 41.8855 252.342 41.3331 252.342C40.7807 252.342 40.251 252.122 39.8604 251.732C39.4698 251.341 39.2503 250.811 39.2503 250.259C39.2503 249.707 39.4698 249.177 39.8604 248.786C40.251 248.396 40.7807 248.176 41.3331 248.176C41.8855 248.176 42.4153 248.396 42.8058 248.786C43.1964 249.177 43.4159 249.707 43.4159 250.259ZM32.1689 254.008C32.7213 254.008 33.2511 253.788 33.6417 253.398C34.0323 253.007 34.2517 252.478 34.2517 251.925C34.2517 251.373 34.0323 250.843 33.6417 250.452C33.2511 250.062 32.7213 249.842 32.1689 249.842C31.6165 249.842 31.0868 250.062 30.6962 250.452C30.3056 250.843 30.0861 251.373 30.0861 251.925C30.0861 252.478 30.3056 253.007 30.6962 253.398C31.0868 253.788 31.6165 254.008 32.1689 254.008Z" fill="#C2CFD6" fill-opacity="0.8"/>
<g clip-path="url(#clip7_100_1775)">
<path d="M25.2545 268.591H28.1577L26.7301 264.596H26.7061L25.2545 268.591ZM26.1063 263.564H27.3659L30.713 272.13H29.4534L28.5176 269.551H24.8946L23.9349 272.13H22.7712L26.1063 263.564ZM36.1648 272.13H35.2051V271.146H35.1811C34.9651 271.53 34.6892 271.814 34.3533 271.998C34.0174 272.174 33.6215 272.262 33.1656 272.262C32.7577 272.262 32.4178 272.21 32.1459 272.106C31.874 271.994 31.654 271.838 31.4861 271.638C31.3181 271.438 31.1981 271.202 31.1262 270.93C31.0622 270.65 31.0302 270.342 31.0302 270.006V265.928H32.0499V270.126C32.0499 270.51 32.1619 270.814 32.3858 271.038C32.6098 271.262 32.9177 271.374 33.3096 271.374C33.6215 271.374 33.8894 271.326 34.1134 271.23C34.3453 271.134 34.5372 270.998 34.6892 270.822C34.8412 270.646 34.9531 270.442 35.0251 270.21C35.1051 269.97 35.1451 269.711 35.1451 269.431V265.928H36.1648V272.13ZM38.0803 269.083C38.0803 269.371 38.1162 269.655 38.1882 269.934C38.2682 270.206 38.3842 270.45 38.5361 270.666C38.6961 270.882 38.896 271.054 39.136 271.182C39.3839 271.31 39.6718 271.374 39.9997 271.374C40.3436 271.374 40.6356 271.306 40.8755 271.17C41.1154 271.034 41.3114 270.858 41.4633 270.642C41.6153 270.418 41.7233 270.166 41.7872 269.886C41.8592 269.607 41.8952 269.323 41.8952 269.035C41.8952 268.731 41.8592 268.439 41.7872 268.159C41.7153 267.871 41.5993 267.619 41.4393 267.403C41.2874 267.187 41.0874 267.015 40.8395 266.887C40.5916 266.751 40.2917 266.683 39.9397 266.683C39.5958 266.683 39.3039 266.751 39.064 266.887C38.824 267.023 38.6321 267.203 38.4881 267.427C38.3442 267.651 38.2402 267.907 38.1762 268.195C38.1122 268.483 38.0803 268.779 38.0803 269.083ZM42.879 272.13H41.8592V271.29H41.8352C41.6673 271.634 41.4034 271.882 41.0435 272.034C40.6835 272.186 40.2877 272.262 39.8558 272.262C39.3759 272.262 38.956 272.174 38.5961 271.998C38.2442 271.822 37.9483 271.586 37.7084 271.29C37.4764 270.994 37.3005 270.65 37.1805 270.258C37.0605 269.866 37.0005 269.451 37.0005 269.011C37.0005 268.571 37.0565 268.155 37.1685 267.763C37.2885 267.371 37.4644 267.031 37.6964 266.743C37.9363 266.447 38.2322 266.215 38.5841 266.048C38.944 265.872 39.3599 265.784 39.8318 265.784C39.9917 265.784 40.1637 265.8 40.3476 265.832C40.5316 265.864 40.7155 265.92 40.8995 266C41.0834 266.072 41.2554 266.171 41.4154 266.299C41.5833 266.419 41.7233 266.571 41.8352 266.755H41.8592V263.564H42.879V272.13ZM45.1676 264.812H44.1479V263.564H45.1676V264.812ZM44.1479 265.928H45.1676V272.13H44.1479V265.928ZM47.1312 269.035C47.1312 269.411 47.1792 269.747 47.2752 270.042C47.3792 270.33 47.5191 270.574 47.6951 270.774C47.871 270.966 48.075 271.114 48.3069 271.218C48.5469 271.322 48.7988 271.374 49.0627 271.374C49.3267 271.374 49.5746 271.322 49.8065 271.218C50.0465 271.114 50.2544 270.966 50.4304 270.774C50.6063 270.574 50.7423 270.33 50.8382 270.042C50.9422 269.747 50.9942 269.411 50.9942 269.035C50.9942 268.659 50.9422 268.327 50.8382 268.039C50.7423 267.743 50.6063 267.495 50.4304 267.295C50.2544 267.095 50.0465 266.943 49.8065 266.839C49.5746 266.735 49.3267 266.683 49.0627 266.683C48.7988 266.683 48.5469 266.735 48.3069 266.839C48.075 266.943 47.871 267.095 47.6951 267.295C47.5191 267.495 47.3792 267.743 47.2752 268.039C47.1792 268.327 47.1312 268.659 47.1312 269.035ZM46.0515 269.035C46.0515 268.579 46.1155 268.155 46.2435 267.763C46.3714 267.363 46.5634 267.019 46.8193 266.731C47.0753 266.435 47.3912 266.203 47.7671 266.036C48.143 265.868 48.5749 265.784 49.0627 265.784C49.5586 265.784 49.9905 265.868 50.3584 266.036C50.7343 266.203 51.0502 266.435 51.3061 266.731C51.562 267.019 51.754 267.363 51.882 267.763C52.0099 268.155 52.0739 268.579 52.0739 269.035C52.0739 269.491 52.0099 269.914 51.882 270.306C51.754 270.698 51.562 271.042 51.3061 271.338C51.0502 271.626 50.7343 271.854 50.3584 272.022C49.9905 272.182 49.5586 272.262 49.0627 272.262C48.5749 272.262 48.143 272.182 47.7671 272.022C47.3912 271.854 47.0753 271.626 46.8193 271.338C46.5634 271.042 46.3714 270.698 46.2435 270.306C46.1155 269.914 46.0515 269.491 46.0515 269.035Z" fill="#C2CFD6" fill-opacity="0.8"/>
</g>
</g>
<g clip-path="url(#clip8_100_1775)">
<path fill-rule="evenodd" clip-rule="evenodd" d="M36.7508 303.285H32.5853C32.3643 303.285 32.1524 303.373 31.9962 303.529C31.8399 303.685 31.7522 303.897 31.7522 304.118V305.368H30.0859V304.118C30.0859 303.455 30.3493 302.819 30.818 302.351C31.2867 301.882 31.9224 301.619 32.5853 301.619H42.5826C43.2454 301.619 43.8811 301.882 44.3499 302.351C44.8186 302.819 45.0819 303.455 45.0819 304.118V305.368H43.4157V304.118C43.4157 303.897 43.3279 303.685 43.1717 303.529C43.0154 303.373 42.8035 303.285 42.5826 303.285H38.417V314.948H40.2882L39.8416 316.615H35.3279L34.8813 314.948H36.7508V303.285Z" fill="#C2CFD6" fill-opacity="0.8"/>
<g clip-path="url(#clip9_100_1775)">
<path d="M30.1037 326.507H27.2485V325.548H34.0986V326.507H31.2434V334.113H30.1037V326.507ZM37.4924 330.418C37.4764 330.178 37.4204 329.95 37.3244 329.734C37.2364 329.519 37.1125 329.335 36.9525 329.183C36.8006 329.023 36.6166 328.899 36.4007 328.811C36.1927 328.715 35.9608 328.667 35.7049 328.667C35.4409 328.667 35.201 328.715 34.9851 328.811C34.7771 328.899 34.5972 329.023 34.4452 329.183C34.2932 329.343 34.1733 329.531 34.0853 329.746C33.9973 329.954 33.9453 330.178 33.9293 330.418H37.4924ZM38.4761 332.146C38.3402 332.842 38.0402 333.365 37.5764 333.717C37.1125 334.069 36.5286 334.245 35.8248 334.245C35.329 334.245 34.8971 334.165 34.5292 334.005C34.1693 333.845 33.8654 333.621 33.6174 333.333C33.3695 333.046 33.1815 332.702 33.0536 332.302C32.9336 331.902 32.8656 331.466 32.8496 330.994C32.8496 330.522 32.9216 330.09 33.0656 329.698C33.2095 329.307 33.4095 328.967 33.6654 328.679C33.9293 328.391 34.2373 328.167 34.5892 328.007C34.9491 327.847 35.341 327.767 35.7648 327.767C36.3167 327.767 36.7726 327.883 37.1325 328.115C37.5004 328.339 37.7923 328.627 38.0082 328.979C38.2322 329.331 38.3841 329.714 38.4641 330.13C38.5521 330.546 38.5881 330.942 38.5721 331.318H33.9293C33.9213 331.59 33.9533 331.85 34.0253 332.098C34.0973 332.338 34.2133 332.554 34.3732 332.746C34.5332 332.93 34.7371 333.078 34.9851 333.19C35.233 333.302 35.5249 333.357 35.8608 333.357C36.2927 333.357 36.6446 333.258 36.9165 333.058C37.1965 332.858 37.3804 332.554 37.4684 332.146H38.4761ZM40.9368 330.85L38.7773 327.911H40.085L41.5726 330.082L43.1202 327.911H44.3438L42.2084 330.766L44.6078 334.113H43.3001L41.5726 331.546L39.8451 334.113H38.6094L40.9368 330.85ZM46.5342 327.911H47.7699V328.811H46.5342V332.662C46.5342 332.782 46.5422 332.878 46.5582 332.95C46.5822 333.022 46.6222 333.078 46.6781 333.118C46.7341 333.158 46.8101 333.186 46.9061 333.202C47.0101 333.21 47.142 333.214 47.302 333.214H47.7699V334.113H46.9901C46.7261 334.113 46.4982 334.097 46.3062 334.065C46.1223 334.025 45.9703 333.957 45.8504 333.861C45.7384 333.765 45.6544 333.629 45.5984 333.453C45.5425 333.278 45.5145 333.046 45.5145 332.758V328.811H44.4587V327.911H45.5145V326.051H46.5342V327.911Z" fill="#C2CFD6" fill-opacity="0.8"/>
</g>
</g>
<g clip-path="url(#clip10_100_1775)">
<path d="M41.3375 371.099C41.227 371.099 41.1211 371.055 41.0429 370.977C40.9648 370.899 40.9209 370.793 40.9209 370.683V369.85C40.9209 369.739 40.9648 369.633 41.0429 369.555C41.1211 369.477 41.227 369.433 41.3375 369.433H42.1706C42.2811 369.433 42.387 369.477 42.4651 369.555C42.5433 369.633 42.5871 369.739 42.5871 369.85V370.683C42.5871 370.793 42.5433 370.899 42.4651 370.977C42.387 371.055 42.2811 371.099 42.1706 371.099H41.3375ZM33.0064 374.432C32.8959 374.432 32.79 374.388 32.7118 374.31C32.6337 374.232 32.5898 374.126 32.5898 374.015V373.182C32.5898 373.072 32.6337 372.966 32.7118 372.888C32.79 372.809 32.8959 372.766 33.0064 372.766H33.8395C33.95 372.766 34.0559 372.809 34.1341 372.888C34.2122 372.966 34.2561 373.072 34.2561 373.182V374.015C34.2561 374.126 34.2122 374.232 34.1341 374.31C34.0559 374.388 33.95 374.432 33.8395 374.432H33.0064ZM39.6713 371.099C39.7817 371.099 39.8877 371.055 39.9658 370.977C40.0439 370.899 40.0878 370.793 40.0878 370.683V369.85C40.0878 369.739 40.0439 369.633 39.9658 369.555C39.8877 369.477 39.7817 369.433 39.6713 369.433H33.0064C32.8959 369.433 32.79 369.477 32.7118 369.555C32.6337 369.633 32.5898 369.739 32.5898 369.85V370.683C32.5898 370.793 32.6337 370.899 32.7118 370.977C32.79 371.055 32.8959 371.099 33.0064 371.099H39.6713ZM35.5057 374.432C35.3952 374.432 35.2893 374.388 35.2112 374.31C35.1331 374.232 35.0892 374.126 35.0892 374.015V373.182C35.0892 373.072 35.1331 372.966 35.2112 372.888C35.2893 372.809 35.3952 372.766 35.5057 372.766H42.1706C42.2811 372.766 42.387 372.809 42.4651 372.888C42.5433 372.966 42.5871 373.072 42.5871 373.182V374.015C42.5871 374.126 42.5433 374.232 42.4651 374.31C42.387 374.388 42.2811 374.432 42.1706 374.432H35.5057Z" fill="#C2CFD6" fill-opacity="0.8"/>
<path fill-rule="evenodd" clip-rule="evenodd" d="M29.2559 366.933C29.2559 366.271 29.5192 365.635 29.9879 365.166C30.4566 364.697 31.0923 364.434 31.7552 364.434H43.4187C44.0816 364.434 44.7173 364.697 45.186 365.166C45.6547 365.635 45.918 366.271 45.918 366.933V375.264C45.918 375.927 45.6547 376.563 45.186 377.032C44.7173 377.5 44.0816 377.764 43.4187 377.764H31.7552C31.0923 377.764 30.4566 377.5 29.9879 377.032C29.5192 376.563 29.2559 375.927 29.2559 375.264V366.933ZM31.7552 366.1H43.4187C43.6397 366.1 43.8516 366.188 44.0078 366.344C44.164 366.501 44.2518 366.712 44.2518 366.933V375.264C44.2518 375.485 44.164 375.697 44.0078 375.854C43.8516 376.01 43.6397 376.098 43.4187 376.098H31.7552C31.5342 376.098 31.3223 376.01 31.1661 375.854C31.0099 375.697 30.9221 375.485 30.9221 375.264V366.933C30.9221 366.712 31.0099 366.501 31.1661 366.344C31.3223 366.188 31.5342 366.1 31.7552 366.1Z" fill="#C2CFD6" fill-opacity="0.8"/>
<path d="M21.8005 390.11C21.6725 389.502 21.3886 389.047 20.9487 388.743C20.5168 388.439 20.0009 388.287 19.4011 388.287C18.8892 388.287 18.4494 388.383 18.0815 388.575C17.7216 388.767 17.4216 389.027 17.1817 389.354C16.9498 389.674 16.7778 390.042 16.6658 390.458C16.5539 390.874 16.4979 391.306 16.4979 391.754C16.4979 392.242 16.5539 392.706 16.6658 393.145C16.7778 393.577 16.9498 393.957 17.1817 394.285C17.4216 394.605 17.7256 394.861 18.0935 395.053C18.4614 395.245 18.9012 395.341 19.4131 395.341C19.789 395.341 20.1209 395.281 20.4088 395.161C20.7048 395.033 20.9567 394.861 21.1646 394.645C21.3806 394.421 21.5485 394.157 21.6685 393.853C21.7885 393.549 21.8604 393.221 21.8844 392.87H23.0241C22.9122 393.949 22.5403 394.789 21.9084 395.389C21.2766 395.989 20.4128 396.289 19.3171 396.289C18.6533 396.289 18.0735 396.177 17.5776 395.953C17.0817 395.721 16.6698 395.405 16.3419 395.005C16.014 394.605 15.7661 394.133 15.5981 393.589C15.4382 393.046 15.3582 392.462 15.3582 391.838C15.3582 391.214 15.4462 390.63 15.6221 390.086C15.7981 389.534 16.054 389.055 16.3899 388.647C16.7338 388.239 17.1577 387.919 17.6616 387.687C18.1734 387.447 18.7573 387.327 19.4131 387.327C19.861 387.327 20.2849 387.387 20.6848 387.507C21.0847 387.627 21.4406 387.803 21.7525 388.035C22.0644 388.267 22.3243 388.559 22.5323 388.911C22.7402 389.255 22.8762 389.654 22.9402 390.11H21.8005ZM29.4026 396.073C29.2266 396.177 28.9827 396.229 28.6708 396.229C28.4068 396.229 28.1949 396.157 28.0349 396.013C27.883 395.861 27.807 395.617 27.807 395.281C27.5271 395.617 27.1992 395.861 26.8233 396.013C26.4554 396.157 26.0555 396.229 25.6236 396.229C25.3437 396.229 25.0757 396.197 24.8198 396.133C24.5719 396.069 24.3559 395.969 24.172 395.833C23.988 395.697 23.8401 395.521 23.7281 395.305C23.6241 395.081 23.5721 394.813 23.5721 394.501C23.5721 394.149 23.6321 393.861 23.7521 393.637C23.8721 393.413 24.028 393.233 24.22 393.097C24.4199 392.954 24.6438 392.846 24.8918 392.774C25.1477 392.702 25.4076 392.642 25.6716 392.594C25.9515 392.538 26.2154 392.498 26.4634 392.474C26.7193 392.442 26.9432 392.402 27.1352 392.354C27.3271 392.298 27.4791 392.222 27.5911 392.126C27.703 392.022 27.759 391.874 27.759 391.682C27.759 391.458 27.715 391.278 27.627 391.142C27.5471 391.006 27.4391 390.902 27.3031 390.83C27.1752 390.758 27.0272 390.71 26.8593 390.686C26.6993 390.662 26.5393 390.65 26.3794 390.65C25.9475 390.65 25.5876 390.734 25.2997 390.902C25.0117 391.062 24.8558 391.37 24.8318 391.826H23.8121C23.8281 391.442 23.908 391.118 24.052 390.854C24.196 390.59 24.3879 390.378 24.6279 390.218C24.8678 390.05 25.1397 389.93 25.4436 389.858C25.7555 389.786 26.0875 389.75 26.4394 389.75C26.7193 389.75 26.9952 389.77 27.2671 389.81C27.5471 389.85 27.799 389.934 28.0229 390.062C28.2469 390.182 28.4268 390.354 28.5628 390.578C28.6988 390.802 28.7667 391.094 28.7667 391.454V394.645C28.7667 394.885 28.7787 395.061 28.8027 395.173C28.8347 395.285 28.9307 395.341 29.0906 395.341C29.1786 395.341 29.2826 395.321 29.4026 395.281V396.073ZM27.747 392.894C27.619 392.99 27.4511 393.061 27.2431 393.109C27.0352 393.149 26.8153 393.185 26.5833 393.217C26.3594 393.241 26.1314 393.273 25.8995 393.313C25.6676 393.345 25.4596 393.401 25.2757 393.481C25.0917 393.561 24.9398 393.677 24.8198 393.829C24.7078 393.973 24.6518 394.173 24.6518 394.429C24.6518 394.597 24.6838 394.741 24.7478 394.861C24.8198 394.973 24.9078 395.065 25.0117 395.137C25.1237 395.209 25.2517 395.261 25.3956 395.293C25.5396 395.325 25.6916 395.341 25.8515 395.341C26.1874 395.341 26.4754 395.297 26.7153 395.209C26.9552 395.113 27.1512 394.997 27.3031 394.861C27.4551 394.717 27.5671 394.565 27.639 394.405C27.711 394.237 27.747 394.081 27.747 393.937V392.894ZM30.0277 389.894H31.0474V390.734H31.0714C31.2394 390.39 31.5033 390.142 31.8632 389.99C32.2231 389.83 32.619 389.75 33.0509 389.75C33.5308 389.75 33.9466 389.838 34.2986 390.014C34.6585 390.19 34.9544 390.43 35.1863 390.734C35.4262 391.03 35.6062 391.374 35.7262 391.766C35.8461 392.158 35.9061 392.574 35.9061 393.014C35.9061 393.453 35.8461 393.869 35.7262 394.261C35.6142 394.653 35.4382 394.997 35.1983 395.293C34.9664 395.581 34.6705 395.809 34.3106 395.977C33.9586 396.145 33.5468 396.229 33.0749 396.229C32.9229 396.229 32.751 396.213 32.559 396.181C32.3751 396.149 32.1911 396.097 32.0072 396.025C31.8232 395.953 31.6473 395.857 31.4793 395.737C31.3194 395.609 31.1834 395.453 31.0714 395.269H31.0474V398.46H30.0277V389.894ZM34.8264 392.942C34.8264 392.654 34.7864 392.374 34.7064 392.102C34.6345 391.822 34.5185 391.574 34.3585 391.358C34.2066 391.142 34.0066 390.97 33.7587 390.842C33.5188 390.714 33.2348 390.65 32.9069 390.65C32.563 390.65 32.2711 390.718 32.0312 390.854C31.7912 390.99 31.5953 391.17 31.4433 391.394C31.2914 391.61 31.1794 391.858 31.1074 392.138C31.0434 392.418 31.0114 392.702 31.0114 392.99C31.0114 393.293 31.0474 393.589 31.1194 393.877C31.1914 394.157 31.3034 394.405 31.4553 394.621C31.6153 394.837 31.8192 395.013 32.0672 395.149C32.3151 395.277 32.615 395.341 32.9669 395.341C33.3188 395.341 33.6107 395.273 33.8427 395.137C34.0826 395.001 34.2746 394.821 34.4185 394.597C34.5625 394.373 34.6665 394.117 34.7304 393.829C34.7944 393.541 34.8264 393.245 34.8264 392.942ZM38.1588 389.894H39.3945V390.794H38.1588V394.645C38.1588 394.765 38.1668 394.861 38.1828 394.933C38.2068 395.005 38.2468 395.061 38.3028 395.101C38.3587 395.141 38.4347 395.169 38.5307 395.185C38.6347 395.193 38.7666 395.197 38.9266 395.197H39.3945V396.097H38.6147C38.3507 396.097 38.1228 396.081 37.9309 396.049C37.7469 396.009 37.5949 395.941 37.475 395.845C37.363 395.749 37.279 395.613 37.223 395.437C37.1671 395.261 37.1391 395.029 37.1391 394.741V390.794H36.0834V389.894H37.1391V388.035H38.1588V389.894ZM41.2471 388.779H40.2274V387.531H41.2471V388.779ZM40.2274 389.894H41.2471V396.097H40.2274V389.894ZM43.2107 393.002C43.2107 393.377 43.2587 393.713 43.3547 394.009C43.4587 394.297 43.5986 394.541 43.7746 394.741C43.9505 394.933 44.1545 395.081 44.3864 395.185C44.6264 395.289 44.8783 395.341 45.1422 395.341C45.4061 395.341 45.6541 395.289 45.886 395.185C46.126 395.081 46.3339 394.933 46.5099 394.741C46.6858 394.541 46.8218 394.297 46.9177 394.009C47.0217 393.713 47.0737 393.377 47.0737 393.002C47.0737 392.626 47.0217 392.294 46.9177 392.006C46.8218 391.71 46.6858 391.462 46.5099 391.262C46.3339 391.062 46.126 390.91 45.886 390.806C45.6541 390.702 45.4061 390.65 45.1422 390.65C44.8783 390.65 44.6264 390.702 44.3864 390.806C44.1545 390.91 43.9505 391.062 43.7746 391.262C43.5986 391.462 43.4587 391.71 43.3547 392.006C43.2587 392.294 43.2107 392.626 43.2107 393.002ZM42.131 393.002C42.131 392.546 42.195 392.122 42.323 391.73C42.4509 391.33 42.6429 390.986 42.8988 390.698C43.1548 390.402 43.4707 390.17 43.8466 390.002C44.2225 389.834 44.6544 389.75 45.1422 389.75C45.6381 389.75 46.07 389.834 46.4379 390.002C46.8138 390.17 47.1297 390.402 47.3856 390.698C47.6415 390.986 47.8335 391.33 47.9615 391.73C48.0894 392.122 48.1534 392.546 48.1534 393.002C48.1534 393.457 48.0894 393.881 47.9615 394.273C47.8335 394.665 47.6415 395.009 47.3856 395.305C47.1297 395.593 46.8138 395.821 46.4379 395.989C46.07 396.149 45.6381 396.229 45.1422 396.229C44.6544 396.229 44.2225 396.149 43.8466 395.989C43.4707 395.821 43.1548 395.593 42.8988 395.305C42.6429 395.009 42.4509 394.665 42.323 394.273C42.195 393.881 42.131 393.457 42.131 393.002ZM48.9958 389.894H49.9555V390.878H49.9795C50.4034 390.126 51.0752 389.75 51.995 389.75C52.4029 389.75 52.7428 389.806 53.0147 389.918C53.2866 390.03 53.5066 390.186 53.6745 390.386C53.8425 390.586 53.9585 390.826 54.0224 391.106C54.0944 391.378 54.1304 391.682 54.1304 392.018V396.097H53.1107V391.898C53.1107 391.514 52.9987 391.21 52.7748 390.986C52.5508 390.762 52.2429 390.65 51.851 390.65C51.5391 390.65 51.2672 390.698 51.0353 390.794C50.8113 390.89 50.6234 391.026 50.4714 391.202C50.3194 391.378 50.2035 391.586 50.1235 391.826C50.0515 392.058 50.0155 392.314 50.0155 392.594V396.097H48.9958V389.894ZM55.9259 394.141C55.9339 394.365 55.9859 394.557 56.0819 394.717C56.1778 394.869 56.3018 394.993 56.4538 395.089C56.6137 395.177 56.7897 395.241 56.9816 395.281C57.1816 395.321 57.3855 395.341 57.5935 395.341C57.7534 395.341 57.9214 395.329 58.0973 395.305C58.2733 395.281 58.4332 395.237 58.5772 395.173C58.7291 395.109 58.8531 395.017 58.9491 394.897C59.0451 394.769 59.093 394.609 59.093 394.417C59.093 394.153 58.9931 393.953 58.7931 393.817C58.5932 393.681 58.3413 393.573 58.0373 393.493C57.7414 393.405 57.4175 393.329 57.0656 393.265C56.7137 393.193 56.3858 393.097 56.0819 392.978C55.7859 392.85 55.538 392.674 55.3381 392.45C55.1381 392.226 55.0381 391.914 55.0381 391.514C55.0381 391.202 55.1061 390.934 55.2421 390.71C55.386 390.486 55.566 390.306 55.7819 390.17C56.0059 390.026 56.2538 389.922 56.5257 389.858C56.8057 389.786 57.0816 389.75 57.3535 389.75C57.7054 389.75 58.0293 389.782 58.3253 389.846C58.6212 389.902 58.8811 390.006 59.105 390.158C59.337 390.302 59.5209 390.502 59.6569 390.758C59.7929 391.006 59.8728 391.318 59.8968 391.694H58.8771C58.8611 391.494 58.8091 391.33 58.7211 391.202C58.6332 391.066 58.5212 390.958 58.3852 390.878C58.2493 390.798 58.0973 390.742 57.9294 390.71C57.7694 390.67 57.6054 390.65 57.4375 390.65C57.2855 390.65 57.1296 390.662 56.9696 390.686C56.8177 390.71 56.6777 390.754 56.5497 390.818C56.4218 390.874 56.3178 390.954 56.2378 391.058C56.1578 391.154 56.1179 391.282 56.1179 391.442C56.1179 391.618 56.1778 391.766 56.2978 391.886C56.4258 391.998 56.5857 392.094 56.7777 392.174C56.9696 392.246 57.1856 392.31 57.4255 392.366C57.6654 392.414 57.9054 392.466 58.1453 392.522C58.4012 392.578 58.6492 392.646 58.8891 392.726C59.137 392.806 59.353 392.914 59.5369 393.05C59.7289 393.177 59.8808 393.341 59.9928 393.541C60.1128 393.741 60.1728 393.989 60.1728 394.285C60.1728 394.661 60.0928 394.973 59.9328 395.221C59.7809 395.469 59.5769 395.669 59.321 395.821C59.0731 395.973 58.7891 396.077 58.4692 396.133C58.1573 396.197 57.8454 396.229 57.5335 396.229C57.1896 396.229 56.8617 396.193 56.5497 396.121C56.2378 396.049 55.9619 395.933 55.722 395.773C55.482 395.605 55.2901 395.389 55.1461 395.125C55.0022 394.853 54.9222 394.525 54.9062 394.141H55.9259Z" fill="#C2CFD6" fill-opacity="0.8"/>
</g>
<g clip-path="url(#clip11_100_1775)">
<path fill-rule="evenodd" clip-rule="evenodd" d="M30.5084 426.418C30.3979 426.418 30.2919 426.462 30.2138 426.54C30.1357 426.618 30.0918 426.724 30.0918 426.835V427.668C30.0918 427.778 30.1357 427.884 30.2138 427.962C30.2919 428.04 30.3979 428.084 30.5084 428.084H44.6712C44.7817 428.084 44.8876 428.04 44.9657 427.962C45.0439 427.884 45.0877 427.778 45.0877 427.668V426.835C45.0877 426.724 45.0439 426.618 44.9657 426.54C44.8876 426.462 44.7817 426.418 44.6712 426.418H30.5084ZM30.5084 432.25C30.3979 432.25 30.2919 432.294 30.2138 432.372C30.1357 432.45 30.0918 432.556 30.0918 432.666V433.499C30.0918 433.61 30.1357 433.716 30.2138 433.794C30.2919 433.872 30.3979 433.916 30.5084 433.916H35.1088C35.5387 433.244 36.1109 432.676 36.785 432.25H30.5084ZM30.5084 438.081H34.4023C34.5439 438.681 34.7855 439.244 35.1088 439.748H30.5084C30.3979 439.748 30.2919 439.704 30.2138 439.626C30.1357 439.548 30.0918 439.442 30.0918 439.331V438.498C30.0918 438.388 30.1357 438.282 30.2138 438.203C30.2919 438.125 30.3979 438.081 30.5084 438.081ZM38.2746 436.534C38.5666 436.534 38.8466 436.65 39.0531 436.857C39.2595 437.063 39.3755 437.343 39.3755 437.635C39.3755 437.927 39.2595 438.207 39.0531 438.414C38.8466 438.62 38.5666 438.736 38.2746 438.736C37.9826 438.736 37.7026 438.62 37.4961 438.414C37.2896 438.207 37.1736 437.927 37.1736 437.635C37.1736 437.343 37.2896 437.063 37.4961 436.857C37.7026 436.65 37.9826 436.534 38.2746 436.534ZM38.2746 435.285C38.5645 435.285 38.8419 435.337 39.0985 435.433L40.5723 433.678L37.9755 430.584H39.6917L41.4129 432.676L43.1716 430.584H44.9203L42.2802 433.729L43.6906 435.444C44.2203 435.238 44.8068 435.23 45.3415 435.423C45.8762 435.616 46.3228 435.996 46.5986 436.493C46.8744 436.991 46.9608 437.571 46.8416 438.127C46.7224 438.682 46.4058 439.176 45.9505 439.516C45.4951 439.857 44.9319 440.02 44.3651 439.977C43.7983 439.934 43.2663 439.687 42.8678 439.282C42.4693 438.876 42.2311 438.34 42.1975 437.773C42.1639 437.205 42.3371 436.645 42.6851 436.195L41.4487 434.721L40.1699 436.244C40.4825 436.67 40.6424 437.189 40.6239 437.717C40.6054 438.245 40.4095 438.752 40.0678 439.155C39.7261 439.558 39.2586 439.834 38.7407 439.939C38.2229 440.043 37.6848 439.97 37.2134 439.732C36.7421 439.493 36.3649 439.102 36.1428 438.623C35.9206 438.144 35.8665 437.603 35.9891 437.089C36.1118 436.576 36.404 436.118 36.8187 435.79C37.2333 435.463 37.7462 435.285 38.2746 435.285ZM44.5421 436.534C44.8341 436.534 45.1141 436.65 45.3206 436.857C45.527 437.063 45.643 437.343 45.643 437.635C45.643 437.927 45.527 438.207 45.3206 438.414C45.1141 438.62 44.8341 438.736 44.5421 438.736C44.2501 438.736 43.97 438.62 43.7636 438.414C43.5571 438.207 43.4411 437.927 43.4411 437.635C43.4411 437.343 43.5571 437.063 43.7636 436.857C43.97 436.65 44.2501 436.534 44.5421 436.534Z" fill="#C2CFD6" fill-opacity="0.8"/>
<g clip-path="url(#clip12_100_1775)">
<path d="M15.7364 450.474H12.8812V449.514H19.7313V450.474H16.8761V458.08H15.7364V450.474ZM19.0166 451.877H19.9763V453.185H20.0003C20.2482 452.681 20.5522 452.309 20.9121 452.069C21.272 451.829 21.7278 451.717 22.2797 451.733V452.813C21.8718 452.813 21.5239 452.869 21.236 452.981C20.948 453.093 20.7161 453.257 20.5402 453.473C20.3642 453.689 20.2362 453.953 20.1563 454.265C20.0763 454.569 20.0363 454.92 20.0363 455.32V458.08H19.0166V451.877ZM28.1822 458.056C28.0062 458.16 27.7623 458.212 27.4504 458.212C27.1865 458.212 26.9745 458.14 26.8146 457.996C26.6626 457.844 26.5866 457.6 26.5866 457.264C26.3067 457.6 25.9788 457.844 25.6029 457.996C25.235 458.14 24.8351 458.212 24.4032 458.212C24.1233 458.212 23.8554 458.18 23.5994 458.116C23.3515 458.052 23.1356 457.952 22.9516 457.816C22.7677 457.68 22.6197 457.504 22.5077 457.288C22.4038 457.064 22.3518 456.796 22.3518 456.484C22.3518 456.132 22.4117 455.844 22.5317 455.62C22.6517 455.396 22.8076 455.216 22.9996 455.08C23.1995 454.936 23.4235 454.828 23.6714 454.756C23.9273 454.685 24.1873 454.625 24.4512 454.577C24.7311 454.521 24.9951 454.481 25.243 454.457C25.4989 454.425 25.7229 454.385 25.9148 454.337C26.1068 454.281 26.2587 454.205 26.3707 454.109C26.4826 454.005 26.5386 453.857 26.5386 453.665C26.5386 453.441 26.4946 453.261 26.4067 453.125C26.3267 452.989 26.2187 452.885 26.0828 452.813C25.9548 452.741 25.8068 452.693 25.6389 452.669C25.4789 452.645 25.319 452.633 25.159 452.633C24.7271 452.633 24.3672 452.717 24.0793 452.885C23.7914 453.045 23.6354 453.353 23.6114 453.809H22.5917C22.6077 453.425 22.6877 453.101 22.8316 452.837C22.9756 452.573 23.1675 452.361 23.4075 452.201C23.6474 452.033 23.9193 451.913 24.2233 451.841C24.5352 451.769 24.8671 451.733 25.219 451.733C25.4989 451.733 25.7748 451.753 26.0468 451.793C26.3267 451.833 26.5786 451.917 26.8026 452.045C27.0265 452.165 27.2065 452.337 27.3424 452.561C27.4784 452.785 27.5464 453.077 27.5464 453.437V456.628C27.5464 456.868 27.5584 457.044 27.5824 457.156C27.6143 457.268 27.7103 457.324 27.8703 457.324C27.9583 457.324 28.0622 457.304 28.1822 457.264V458.056ZM26.5266 454.876C26.3987 454.972 26.2307 455.044 26.0228 455.092C25.8148 455.132 25.5949 455.168 25.363 455.2C25.139 455.224 24.9111 455.256 24.6791 455.296C24.4472 455.328 24.2393 455.384 24.0553 455.464C23.8714 455.544 23.7194 455.66 23.5994 455.812C23.4875 455.956 23.4315 456.156 23.4315 456.412C23.4315 456.58 23.4635 456.724 23.5274 456.844C23.5994 456.956 23.6874 457.048 23.7914 457.12C23.9033 457.192 24.0313 457.244 24.1753 457.276C24.3192 457.308 24.4712 457.324 24.6311 457.324C24.9671 457.324 25.255 457.28 25.4949 457.192C25.7349 457.096 25.9308 456.98 26.0828 456.844C26.2347 456.7 26.3467 456.548 26.4187 456.388C26.4906 456.22 26.5266 456.064 26.5266 455.92V454.876ZM28.7713 451.877H29.7311V452.861H29.7551C30.179 452.109 30.8508 451.733 31.7705 451.733C32.1784 451.733 32.5183 451.789 32.7903 451.901C33.0622 452.013 33.2821 452.169 33.4501 452.369C33.618 452.569 33.734 452.809 33.798 453.089C33.87 453.361 33.906 453.665 33.906 454.001V458.08H32.8862V453.881C32.8862 453.497 32.7743 453.193 32.5503 452.969C32.3264 452.745 32.0185 452.633 31.6266 452.633C31.3147 452.633 31.0427 452.681 30.8108 452.777C30.5869 452.873 30.3989 453.009 30.2469 453.185C30.095 453.361 29.979 453.569 29.899 453.809C29.8271 454.041 29.7911 454.297 29.7911 454.577V458.08H28.7713V451.877ZM35.7014 456.124C35.7094 456.348 35.7614 456.54 35.8574 456.7C35.9534 456.852 36.0773 456.976 36.2293 457.072C36.3893 457.16 36.5652 457.224 36.7572 457.264C36.9571 457.304 37.161 457.324 37.369 457.324C37.5289 457.324 37.6969 457.312 37.8729 457.288C38.0488 457.264 38.2088 457.22 38.3527 457.156C38.5047 457.092 38.6287 457 38.7246 456.88C38.8206 456.752 38.8686 456.592 38.8686 456.4C38.8686 456.136 38.7686 455.936 38.5687 455.8C38.3687 455.664 38.1168 455.556 37.8129 455.476C37.517 455.388 37.193 455.312 36.8411 455.248C36.4892 455.176 36.1613 455.08 35.8574 454.96C35.5615 454.832 35.3135 454.657 35.1136 454.433C34.9137 454.209 34.8137 453.897 34.8137 453.497C34.8137 453.185 34.8817 452.917 35.0176 452.693C35.1616 452.469 35.3415 452.289 35.5575 452.153C35.7814 452.009 36.0294 451.905 36.3013 451.841C36.5812 451.769 36.8571 451.733 37.1291 451.733C37.481 451.733 37.8049 451.765 38.1008 451.829C38.3967 451.885 38.6566 451.989 38.8806 452.141C39.1125 452.285 39.2965 452.485 39.4324 452.741C39.5684 452.989 39.6484 453.301 39.6724 453.677H38.6526C38.6366 453.477 38.5847 453.313 38.4967 453.185C38.4087 453.049 38.2967 452.941 38.1608 452.861C38.0248 452.781 37.8729 452.725 37.7049 452.693C37.5449 452.653 37.381 452.633 37.213 452.633C37.0611 452.633 36.9051 452.645 36.7452 452.669C36.5932 452.693 36.4532 452.737 36.3253 452.801C36.1973 452.857 36.0933 452.937 36.0134 453.041C35.9334 453.137 35.8934 453.265 35.8934 453.425C35.8934 453.601 35.9534 453.749 36.0733 453.869C36.2013 453.981 36.3613 454.077 36.5532 454.157C36.7452 454.229 36.9611 454.293 37.201 454.349C37.441 454.397 37.6809 454.449 37.9208 454.505C38.1768 454.561 38.4247 454.629 38.6646 454.708C38.9126 454.788 39.1285 454.896 39.3125 455.032C39.5044 455.16 39.6564 455.324 39.7683 455.524C39.8883 455.724 39.9483 455.972 39.9483 456.268C39.9483 456.644 39.8683 456.956 39.7084 457.204C39.5564 457.452 39.3525 457.652 39.0965 457.804C38.8486 457.956 38.5647 458.06 38.2448 458.116C37.9328 458.18 37.6209 458.212 37.309 458.212C36.9651 458.212 36.6372 458.176 36.3253 458.104C36.0134 458.032 35.7374 457.916 35.4975 457.756C35.2576 457.588 35.0656 457.372 34.9217 457.108C34.7777 456.836 34.6977 456.508 34.6817 456.124H35.7014ZM44.9269 453.869C44.847 453.477 44.679 453.173 44.4231 452.957C44.1672 452.741 43.8232 452.633 43.3914 452.633C43.0235 452.633 42.7155 452.701 42.4676 452.837C42.2197 452.973 42.0197 453.153 41.8678 453.377C41.7238 453.601 41.6198 453.861 41.5559 454.157C41.4919 454.445 41.4599 454.744 41.4599 455.056C41.4599 455.344 41.4919 455.624 41.5559 455.896C41.6278 456.168 41.7358 456.412 41.8798 456.628C42.0237 456.836 42.2117 457.004 42.4436 457.132C42.6756 457.26 42.9515 457.324 43.2714 457.324C43.7753 457.324 44.1672 457.192 44.4471 456.928C44.735 456.664 44.911 456.292 44.9749 455.812H46.0187C45.9067 456.58 45.6188 457.172 45.1549 457.588C44.699 458.004 44.0752 458.212 43.2834 458.212C42.8115 458.212 42.3916 458.136 42.0237 457.984C41.6638 457.832 41.3599 457.616 41.112 457.336C40.872 457.056 40.6881 456.724 40.5601 456.34C40.4402 455.948 40.3802 455.52 40.3802 455.056C40.3802 454.593 40.4402 454.161 40.5601 453.761C40.6801 453.353 40.86 453.001 41.1 452.705C41.3479 452.401 41.6558 452.165 42.0237 451.997C42.3916 451.821 42.8195 451.733 43.3074 451.733C43.6593 451.733 43.9872 451.777 44.2911 451.865C44.603 451.945 44.875 452.073 45.1069 452.249C45.3468 452.425 45.5428 452.649 45.6947 452.921C45.8467 453.185 45.9427 453.501 45.9827 453.869H44.9269ZM46.7638 451.877H47.7235V453.185H47.7475C47.9954 452.681 48.2994 452.309 48.6593 452.069C49.0192 451.829 49.475 451.717 50.0269 451.733V452.813C49.619 452.813 49.2711 452.869 48.9832 452.981C48.6952 453.093 48.4633 453.257 48.2874 453.473C48.1114 453.689 47.9834 453.953 47.9035 454.265C47.8235 454.569 47.7835 454.92 47.7835 455.32V458.08H46.7638V451.877ZM51.5146 450.762H50.4949V449.514H51.5146V450.762ZM50.4949 451.877H51.5146V458.08H50.4949V451.877ZM52.7704 451.877H53.7901V452.717H53.8141C53.9821 452.373 54.246 452.125 54.6059 451.973C54.9658 451.813 55.3617 451.733 55.7936 451.733C56.2735 451.733 56.6893 451.821 57.0412 451.997C57.4011 452.173 57.6971 452.413 57.929 452.717C58.1689 453.013 58.3489 453.357 58.4689 453.749C58.5888 454.141 58.6488 454.557 58.6488 454.996C58.6488 455.436 58.5888 455.852 58.4689 456.244C58.3569 456.636 58.1809 456.98 57.941 457.276C57.7091 457.564 57.4131 457.792 57.0532 457.96C56.7013 458.128 56.2894 458.212 55.8176 458.212C55.6656 458.212 55.4937 458.196 55.3017 458.164C55.1178 458.132 54.9338 458.08 54.7499 458.008C54.5659 457.936 54.39 457.84 54.222 457.72C54.062 457.592 53.9261 457.436 53.8141 457.252H53.7901V460.443H52.7704V451.877ZM57.5691 454.924C57.5691 454.637 57.5291 454.357 57.4491 454.085C57.3772 453.805 57.2612 453.557 57.1012 453.341C56.9493 453.125 56.7493 452.953 56.5014 452.825C56.2615 452.697 55.9775 452.633 55.6496 452.633C55.3057 452.633 55.0138 452.701 54.7739 452.837C54.5339 452.973 54.338 453.153 54.186 453.377C54.0341 453.593 53.9221 453.841 53.8501 454.121C53.7861 454.401 53.7541 454.685 53.7541 454.972C53.7541 455.276 53.7901 455.572 53.8621 455.86C53.9341 456.14 54.0461 456.388 54.198 456.604C54.358 456.82 54.5619 456.996 54.8098 457.132C55.0578 457.26 55.3577 457.324 55.7096 457.324C56.0615 457.324 56.3534 457.256 56.5854 457.12C56.8253 456.984 57.0173 456.804 57.1612 456.58C57.3052 456.356 57.4091 456.1 57.4731 455.812C57.5371 455.524 57.5691 455.228 57.5691 454.924ZM60.9015 451.877H62.1371V452.777H60.9015V456.628C60.9015 456.748 60.9095 456.844 60.9255 456.916C60.9495 456.988 60.9895 457.044 61.0454 457.084C61.1014 457.124 61.1774 457.152 61.2734 457.168C61.3774 457.176 61.5093 457.18 61.6693 457.18H62.1371V458.08H61.3574C61.0934 458.08 60.8655 458.064 60.6735 458.032C60.4896 457.992 60.3376 457.924 60.2177 457.828C60.1057 457.732 60.0217 457.596 59.9657 457.42C59.9097 457.244 59.8818 457.012 59.8818 456.724V452.777H58.826V451.877H59.8818V450.018H60.9015V451.877Z" fill="#C2CFD6" fill-opacity="0.8"/>
</g>
</g>
</g>
</g>
<defs>
<filter id="filter0_f_100_1775" x="17.0093" y="-23.5722" width="95.7255" height="97.9736" filterUnits="userSpaceOnUse" color-interpolation-filters="sRGB">
<feFlood flood-opacity="0" result="BackgroundImageFix"/>
<feBlend mode="normal" in="SourceGraphic" in2="BackgroundImageFix" result="shape"/>
<feGaussianBlur stdDeviation="9.9973" result="effect1_foregroundBlur_100_1775"/>
</filter>
<clipPath id="clip0_100_1775">
<rect width="57.9843" height="581.043" fill="white" transform="translate(8.59766 19.9946)"/>
</clipPath>
<clipPath id="clip1_100_1775">
<rect width="57.9843" height="569.046" fill="white" transform="translate(8.59766 25.9932)"/>
</clipPath>
<clipPath id="clip2_100_1775">
<rect x="8.58984" y="25.9932" width="57.9933" height="57.9843" rx="11.9968" fill="white"/>
</clipPath>
<clipPath id="clip3_100_1775">
<rect width="55.9938" height="16.7955" fill="white" transform="translate(9.58984 57.5845)"/>
</clipPath>
<clipPath id="clip4_100_1775">
<rect x="8.58984" y="87.9766" width="57.9935" height="73.5801" rx="11.9968" fill="white"/>
</clipPath>
<clipPath id="clip5_100_1775">
<rect x="8.58984" y="165.556" width="57.9941" height="57.9843" rx="11.9968" fill="white"/>
</clipPath>
<clipPath id="clip6_100_1775">
<rect x="8.58984" y="227.539" width="57.9924" height="57.9843" rx="11.9968" fill="white"/>
</clipPath>
<clipPath id="clip7_100_1775">
<rect width="55.993" height="16.7955" fill="white" transform="translate(9.58984 259.13)"/>
</clipPath>
<clipPath id="clip8_100_1775">
<rect x="8.58984" y="289.522" width="57.99" height="57.9843" rx="11.9968" fill="white"/>
</clipPath>
<clipPath id="clip9_100_1775">
<rect width="55.9906" height="16.7955" fill="white" transform="translate(9.58984 321.113)"/>
</clipPath>
<clipPath id="clip10_100_1775">
<rect x="8.58984" y="351.505" width="57.9968" height="57.9843" rx="11.9968" fill="white"/>
</clipPath>
<clipPath id="clip11_100_1775">
<rect x="8.58984" y="413.488" width="57.9978" height="57.9843" rx="11.9968" fill="white"/>
</clipPath>
<clipPath id="clip12_100_1775">
<rect width="55.9984" height="16.7955" fill="white" transform="translate(9.58984 445.08)"/>
</clipPath>
</defs>
</svg>
